<svg xmlns="http://www.w3.org/2000/svg" viewBox="0 0 152.79 173.33"><defs><style>.cls-1{fill:#fff;}.cls-2{fill:#29abe2;}</style></defs><title>white_logo</title><g id="Capa_1" data-name="Capa 1"><path class="cls-1" d="M147.79,39.67,81.39,1.34a10,10,0,0,0-10,0L5,39.67a10,10,0,0,0-5,8.66V125a10,10,0,0,0,5,8.66L71.39,172a10,10,0,0,0,10,0l66.4-38.33a10,10,0,0,0,5-8.66V48.33A10,10,0,0,0,147.79,39.67Zm-30.57,63.76a5,5,0,0,1-2.5,4.33L78.89,128.45a5,5,0,0,1-5,0L38.06,107.77a5,5,0,0,1-2.5-4.33V66.17a5,5,0,0,1,2.5-4.33l8.53-4.92a5,5,0,0,1,5,0L73.89,69.8a5,5,0,0,0,5,0l22.34-12.9a5,5,0,0,1,5,0l8.5,4.78A5,5,0,0,1,117.22,66Z"/><rect class="cls-1" x="76.39" y="86.86"/><path class="cls-2" d="M151.48,43.39,116.57,63.55a5,5,0,0,1,.65,2.46v37.42a5,5,0,0,1-2.5,4.33L78.89,128.45a4.93,4.93,0,0,1-2.5.67v44.21a10,10,0,0,0,5-1.34l33.2-19.17,33.2-19.16a10,10,0,0,0,5-8.66V48.33A10,10,0,0,0,151.48,43.39Z"/></g></svg>