<svg id="Capa_1" data-name="Capa 1" xmlns="http://www.w3.org/2000/svg" viewBox="0 0 86.72 83.74"><defs><style>.cls-1{fill:#fff;}</style></defs><title>icono_mejoras</title><path d="M63.77,41c0,4.51,0,8.8,0,13.09a16.07,16.07,0,0,1-.15,2.6,6.33,6.33,0,0,1-12.55-.55C51,54.58,51,53.05,51,51.53c0-5.16,1.55-7.07,6.65-8.1,0-2.85,0-5.73,0-8.61a2.45,2.45,0,0,0-.76-1.34c-1.28-1.41-2.69-2.71-3.89-4.18-.36-.44-.2-1.3-.28-2,.66.09,1.46,0,1.94.33a29.09,29.09,0,0,1,2.86,2.58s.14-.11.13-.18c-.23-4.72,1.8-5.51,5.27-6.13,4.54-.81,9.06-1.81,13.59-2.74,3.39-.69,5.54,1,5.6,4.45,0,.55,0,1.09,0,1.64,0,.89,0,1.89-1.22,1.91s-1.29-.92-1.29-1.85c0-.7,0-1.41,0-2.12,0-1.29-.77-1.94-2-1.7-5.34,1-10.67,2.09-16,3.28a2.61,2.61,0,0,0-1.4,1.84,10.18,10.18,0,0,0,0,3.89,9.37,9.37,0,0,0,1.47,2.57c1.77-.52,3.18-1,4.63-1.34,2.81-.63,5.64-1.18,8.47-1.72,2-.39,3.53.66,3.64,2.67.11,2.22.07,4.46,0,6.69,0,1.07-.62,1.47-1.74,1.37a5.66,5.66,0,0,0-2.69.28c-2.09.88-2.31,2.29-.76,3.91l6.26,6.53c0-1,.1-1.54.1-2.1,0-5.5,0-11,0-16.49a3.22,3.22,0,0,1,.12-1.44,1.83,1.83,0,0,1,1.19-.86c.33,0,.85.46,1,.83a3.41,3.41,0,0,1,.15,1.44c0,5.5,0,11,0,16.49a5.64,5.64,0,0,1-.29,2.41c-.68,1.37-.1,2.19.85,3a11.74,11.74,0,0,1,2.09,2.26c.29.45.06,1.23.06,1.85-.58-.06-1.33.09-1.72-.22-1.23-1-2.34-2.11-3.27-3-1.82.21-3.63.75-5.36.55a5.9,5.9,0,0,1-5.08-5.74,2,2,0,0,1,0-.65C70.42,46.91,67.47,43.91,63.77,41Zm-3.13-3.73-.54.11c0,2.2,0,4.4,0,6.6s-.14,2.31-2.31,2.2a3.87,3.87,0,0,0-4.35,4c0,1.79,0,3.58,0,5.38a4,4,0,0,0,4,4,3.93,3.93,0,0,0,3.8-4.08q0-8.23,0-16.47A5.69,5.69,0,0,0,60.64,37.23Zm15.22-2.94L63.53,36.84,70,43.61a6.8,6.8,0,0,1,5.88-3.52Zm2,21.09L71.78,49c0,2.6-.47,4.85,1.71,6.33A3.93,3.93,0,0,0,77.86,55.38Z"/><path d="M39.46,41.77q0-17.88,0-35.76a10.64,10.64,0,0,1,.24-2.59,4.55,4.55,0,0,1,8.85.46,12.69,12.69,0,0,1,.12,2v64a3.29,3.29,0,0,1-.09,1.45c-.23.45-.77,1-1.17,1s-.92-.61-1.14-1.06a3.67,3.67,0,0,1-.05-1.45q0-31.84,0-63.69a9.81,9.81,0,0,0,0-1.63,2.11,2.11,0,0,0-4.19,0,11.41,11.41,0,0,0,0,1.31V78a11.29,11.29,0,0,0,0,1.3,2.11,2.11,0,0,0,4.19.09A17.68,17.68,0,0,1,46.29,77a1.9,1.9,0,0,1,1.22-1.16c.28-.07,1.05.67,1.08,1.08a12.5,12.5,0,0,1-.2,3.72,4.41,4.41,0,0,1-4.48,3.12,4.48,4.48,0,0,1-4.2-3.29,11.16,11.16,0,0,1-.24-2.59Q39.46,59.82,39.46,41.77Z"/><path d="M37.42,44.35c-.13,8.86-4,18.61-11.83,26.77a3.7,3.7,0,0,1-4.1,1.27c-1.49-.5-2.57-1.57-2.46-3.08a6.1,6.1,0,0,1,1.46-3.42,34.24,34.24,0,0,0,9.13-18.6c1.6-11.14-1.45-20.85-9-29.19A6.42,6.42,0,0,1,19,14.72a3.12,3.12,0,0,1,2.33-3.19,3.54,3.54,0,0,1,4,1,41.36,41.36,0,0,1,8.77,13.05C36.34,30.79,37.42,36.23,37.42,44.35ZM35,42a38.91,38.91,0,0,0-9.44-25.6,14.51,14.51,0,0,0-2.14-2.22,1.61,1.61,0,0,0-1.55,0c-.29.25-.25,1-.12,1.55s.53.66.83,1a36.87,36.87,0,0,1,0,50.46c-.33.36-.79.68-.93,1.11a1.69,1.69,0,0,0,.15,1.43,1.78,1.78,0,0,0,1.45.18c.37-.09.65-.55.94-.86A39,39,0,0,0,35,42Z"/><path d="M26.86,43a31.13,31.13,0,0,1-8.6,20.45c-1.88,2-4.07,2.21-5.71.59s-1.41-3.66.35-5.63c6.63-7.41,8.23-15.82,5-25.17-.05-.16-.18-.33-.15-.46.15-.65.35-1.29.53-1.93.58.34,1.47.55,1.69,1a24.91,24.91,0,0,1,2,11.63A26,26,0,0,1,14.7,60.09l-.11.11c-.62.64-1.15,1.47-.23,2a2.2,2.2,0,0,0,2-.47,27.24,27.24,0,0,0,7.85-17,28.24,28.24,0,0,0-7.49-22.37c-.14-.16-.28-.41-.46-.45-.65-.17-1.32-.27-2-.39a5.36,5.36,0,0,0,.24,2c.52.87,1.44,1.51,1.94,2.4.28.52.06,1.32.07,2a5.07,5.07,0,0,1-1.91-.52A19.37,19.37,0,0,1,12.46,25a3.7,3.7,0,0,1,.08-5.16A3.59,3.59,0,0,1,17.8,20a30.49,30.49,0,0,1,8.83,18.47c.13,1.08.17,2.17.23,3.26C26.89,42.13,26.86,42.56,26.86,43Z"/><path d="M16.24,41.93a20.21,20.21,0,0,1-5.4,14c-1.83,2-4,2.29-5.71.73S3.6,52.94,5.35,51a13.22,13.22,0,0,0,0-18.09c-1.75-2-1.85-4.12-.25-5.63S9,26,10.83,28A20.41,20.41,0,0,1,16.24,41.93Zm-2.41.29A18.61,18.61,0,0,0,9,29.59c-.65-.67-1.35-1.28-2.21-.45s-.15,1.45.4,2.09c5.62,6.53,5.64,14.88,0,21.35-.59.69-1.31,1.4-.39,2.21s1.59.1,2.21-.58A18,18,0,0,0,13.83,42.22Z"/><path class="cls-1" d="M75.86,34.29v5.8A6.8,6.8,0,0,0,70,43.61l-6.45-6.77Z"/></svg>