<svg id="Capa_1" data-name="Capa 1" xmlns="http://www.w3.org/2000/svg" viewBox="0 0 86.72 83.74"><defs><style>.cls-1{fill:#fff;}</style></defs><title>icono_mejoras</title><path class="cls-1" d="M52.5,41.73v1.64c0,5.09,0,10.18,0,15.27a2.17,2.17,0,0,1-1.05,2.15,3.85,3.85,0,0,0-1.59,4.6,4,4,0,0,0,3.92,2.94q13.38,0,26.75,0a4,4,0,0,0,3.93-2.92,3.85,3.85,0,0,0-1.56-4.61,2.19,2.19,0,0,1-1.06-2.15c0-6.51.14-13,0-19.53A27.76,27.76,0,0,0,56.33,12.48c-3.09-.23-6.2,0-9.35,0-.14-3.11-1.43-5-4.29-5.73,0-1.62,0-3.2,0-4.78,0-1-.05-2.16-1.38-2.18S39.83.91,39.84,2c0,1.25,0,2.51,0,3.77,0,.37-.21,1-.45,1.06-2.65.81-3.62,2.8-3.81,5.32H21.73c-.12-2.59-1.18-4.38-3.6-5.28a1.61,1.61,0,0,1-.66-1.22c-.08-1.41.11-2.86-.09-4.25C17.29.78,16.51.27,16.05-.29A9,9,0,0,0,14.7,1.43a3.37,3.37,0,0,0,0,1.62c.17,2,.12,3.7-2.25,4.85-1.21.59-1.69,2.67-2.67,4.38H6.93c-3.31,0-4.91,1.65-4.91,5q0,9.69,0,19.37c0,3.53,1.57,5.1,5.09,5.1H52.5Zm12.57,35.7V72.84c0-1-.41-1.75-1.4-1.56a2.06,2.06,0,0,0-1.29,1.46c-.13,3.12-.14,6.24,0,9.35,0,.57.88,1.1,1.36,1.65.44-.57,1.2-1.1,1.28-1.72A36.93,36.93,0,0,0,65.07,77.43Zm4.23.09c0,1.48,0,3,0,4.43,0,1,.37,1.91,1.43,1.71A2.21,2.21,0,0,0,72,82c.14-3,.07-6,.06-9,0-1-.27-1.81-1.45-1.75s-1.35.9-1.33,1.86C69.31,74.57,69.3,76.05,69.3,77.52ZM58.09,74.64h0a5.26,5.26,0,0,0-.05-2,2.51,2.51,0,0,0-1.42-1.39c-.33-.08-1.23.77-1.29,1.27a16.27,16.27,0,0,0,0,4.24,1.88,1.88,0,0,0,1.37,1.24c.47,0,1.12-.75,1.33-1.3A6.44,6.44,0,0,0,58.09,74.64Zm21,.1a7.86,7.86,0,0,0,0-2.28c-.16-.5-.87-1.2-1.26-1.16a1.93,1.93,0,0,0-1.41,1.17,18.59,18.59,0,0,0,0,4.41c0,.46.87,1.22,1.25,1.18A2.19,2.19,0,0,0,79,76.84,6.11,6.11,0,0,0,79.09,74.74Z"/><path d="M52.5,41.73H7.11C3.59,41.73,2,40.16,2,36.63q0-9.69,0-19.37c0-3.33,1.6-4.94,4.91-5H9.74c1-1.71,1.46-3.79,2.67-4.38,2.37-1.15,2.42-2.81,2.25-4.85a3.37,3.37,0,0,1,0-1.62A9,9,0,0,1,16.05-.29c.46.56,1.24,1.07,1.33,1.69.2,1.39,0,2.84.09,4.25a1.61,1.61,0,0,0,.66,1.22c2.42.9,3.48,2.69,3.6,5.28H35.55c.19-2.52,1.16-4.51,3.81-5.32.24-.07.44-.69.45-1.06.06-1.26,0-2.52,0-3.77,0-1.09,0-2.28,1.48-2.25S42.7.89,42.7,1.93c0,1.58,0,3.16,0,4.78,2.86.73,4.15,2.62,4.29,5.73,3.15,0,6.26-.19,9.35,0A27.76,27.76,0,0,1,81.82,39.12c.18,6.51.06,13,0,19.53a2.19,2.19,0,0,0,1.06,2.15,3.85,3.85,0,0,1,1.56,4.61,4,4,0,0,1-3.93,2.92q-13.38,0-26.75,0a4,4,0,0,1-3.92-2.94,3.85,3.85,0,0,1,1.59-4.6,2.17,2.17,0,0,0,1.05-2.15c0-5.09,0-10.18,0-15.27Zm-.12-2.92V15.23H30.15V38.81Zm3,21.12h3.5c1,0,2,.13,2,1.42s-1,1.41-2,1.4a44.8,44.8,0,0,0-4.92.07,1.85,1.85,0,0,0-1.29,1.28c0,.45.68,1.06,1.2,1.37.37.22,1,.08,1.45.08H79.08c.49,0,1.09.15,1.45-.08.52-.31,1.23-.92,1.21-1.37s-.78-1-1.31-1.31c-.27-.18-.74,0-1.12,0-4,0-8,0-12,0-1,0-2.16,0-2.19-1.35s1.16-1.48,2.24-1.48h9.85c.58,0,1.16-.05,1.8-.08v-18H55.35ZM27.18,15.12h-20c-2,0-2.29.25-2.3,2.26v19c0,2.29.21,2.49,2.57,2.49H25.5c.53,0,1.06,0,1.68-.08ZM55.35,34.4l.26.1,9.81-17L55.35,14.84ZM67.86,18.93l-9.79,17,.29.22,16.91-9.77Zm-8,19.56.1.26H79A22.32,22.32,0,0,0,76.31,29ZM18.72,12.17c0-2.05-.6-2.62-2.54-2.64-2.16,0-2.8.53-2.86,2.64Zm25.22,0c.05-2.11-.64-2.7-3-2.64-1.84,0-2.51.78-2.34,2.64Z"/><path d="M65.07,77.43A36.93,36.93,0,0,1,65,82c-.08.62-.84,1.15-1.28,1.72-.48-.55-1.33-1.08-1.36-1.65-.13-3.11-.12-6.23,0-9.35a2.06,2.06,0,0,1,1.29-1.46c1-.19,1.4.6,1.4,1.56Z"/><path d="M69.3,77.52c0-1.47,0-3,0-4.43,0-1,.18-1.81,1.33-1.86S72.08,72,72.08,73c0,3,.08,6-.06,9a2.21,2.21,0,0,1-1.29,1.66c-1.06.2-1.44-.7-1.43-1.71C69.31,80.48,69.3,79,69.3,77.52Z"/><path d="M58.09,74.64A6.44,6.44,0,0,1,58,76.75c-.21.55-.86,1.29-1.33,1.3a1.88,1.88,0,0,1-1.37-1.24,16.27,16.27,0,0,1,0-4.24c.06-.5,1-1.35,1.29-1.27a2.51,2.51,0,0,1,1.42,1.39,5.26,5.26,0,0,1,.05,2Z"/><path d="M79.09,74.74a6.11,6.11,0,0,1,0,2.1,2.19,2.19,0,0,1-1.42,1.22c-.38,0-1.2-.72-1.25-1.18a18.59,18.59,0,0,1,0-4.41,1.93,1.93,0,0,1,1.41-1.17c.39,0,1.1.66,1.26,1.16A7.86,7.86,0,0,1,79.09,74.74Z"/><path class="cls-1" d="M52.38,38.81H30.15V15.23H52.38Z"/><path class="cls-1" d="M55.35,59.93V41.83H79v18c-.64,0-1.22.08-1.8.08H67.38c-1.08,0-2.28,0-2.24,1.48s1.15,1.35,2.19,1.35c4,0,8,0,12,0,.38,0,.85-.14,1.12,0,.53.34,1.29.84,1.31,1.31s-.69,1.06-1.21,1.37c-.36.23-1,.08-1.45.08H55.29c-.49,0-1.08.14-1.45-.08-.52-.31-1.23-.92-1.2-1.37a1.85,1.85,0,0,1,1.29-1.28,44.8,44.8,0,0,1,4.92-.07c1,0,1.95-.14,2-1.4s-1-1.41-2-1.42Z"/><path class="cls-1" d="M27.18,15.12V38.83c-.62,0-1.15.08-1.68.08H7.44c-2.36,0-2.57-.2-2.57-2.49v-19c0-2,.26-2.26,2.3-2.26Z"/><path class="cls-1" d="M55.35,34.4V14.84l10.07,2.69-9.81,17Z"/><path class="cls-1" d="M67.86,18.93l7.41,7.42L58.36,36.12l-.29-.22Z"/><path class="cls-1" d="M59.89,38.49,76.31,29A22.32,22.32,0,0,1,79,38.75H60Z"/><path class="cls-1" d="M18.72,12.17h-5.4c.06-2.11.7-2.67,2.86-2.64C18.12,9.55,18.71,10.12,18.72,12.17Z"/><path class="cls-1" d="M43.94,12.17h-5.3c-.17-1.86.5-2.6,2.34-2.64C43.3,9.47,44,10.06,43.94,12.17Z"/></svg>