<svg id="Capa_1" data-name="Capa 1" xmlns="http://www.w3.org/2000/svg" viewBox="0 0 86.72 83.74"><title>icono_mejoras</title><path d="M84.47,21.24C81.82,17.61,79.11,14,76.4,10.45a1.37,1.37,0,0,0-2.44,0c-2.72,3.58-5.43,7.16-8.07,10.79-.82,1.12-.28,2.17,1.11,2.29.83.08,1.68,0,2.6,0,0,5.1.29,10-.07,14.87-.47,6.36-7,11-13.18,7.37-1.93-1.12-4-2-6-3a11.53,11.53,0,0,0-8.9-.78,54.12,54.12,0,0,0-7.68,3.5,11.13,11.13,0,0,1-11.2,0c-2.62-1.41-5.34-2.64-8.21-4v-6.7l44.27-12V44.16h2.81V38.5h0V22l1.46-.4a2.44,2.44,0,0,0,1.51-1.15,2.38,2.38,0,0,0,.24-1.86L64,16.39a2.48,2.48,0,0,0-1.18-1.48,2.56,2.56,0,0,0-1.9-.23l-52,14.06a2.47,2.47,0,0,0-1.51,1.15,2.38,2.38,0,0,0-.23,1.86L7.76,34a2.51,2.51,0,0,0,2.41,1.8,2.52,2.52,0,0,0,.67-.09l.66-.17v3h0v2.69a44.73,44.73,0,0,0-5,1.88A45.87,45.87,0,0,0,2,46v3c1.79-1.05,3.32-1.78,4.67-2.76a8.51,8.51,0,0,1,9.56-.84q2.92,1.48,5.86,2.94a13.09,13.09,0,0,0,12.28,0l5.56-2.78a10.26,10.26,0,0,1,9.63,0c2.12,1,4.18,2.21,6.35,3.13a13.69,13.69,0,0,0,4.46,1.17c6.42.32,11.93-5.23,12-12.06.08-4.67,0-9.34,0-14a4.17,4.17,0,0,0-.37-2.3c-.38-.51-1.33-.6-2.15-.93l5.3-7.06c1.88,2.52,3.6,4.8,5.36,7.15-2.59.47-2.6.48-2.6,3,0,5.7.07,11.41,0,17.11-.15,9.25-8.57,16.56-17.67,15.06-3.28-.54-6.43-2-9.56-3.29a14,14,0,0,0-12,.25c-1.9.95-3.8,1.92-5.71,2.86a10.29,10.29,0,0,1-9.63,0c-2.11-1.05-4.2-2.15-6.33-3.16a11,11,0,0,0-11.6,1c-1.12.78-2.26,1.52-3.37,2.26v3c1.82-1.09,3.33-1.85,4.69-2.83A8.46,8.46,0,0,1,16.12,55c2.11,1.06,4.22,2.12,6.34,3.15a11.15,11.15,0,0,0,8.55.93,78.41,78.41,0,0,0,8.81-3.9,11,11,0,0,1,9.51-.28c1.8.77,3.56,1.61,5.37,2.35a18.8,18.8,0,0,0,22.31-6,8.37,8.37,0,0,0,.57-1c.12,9.16-8.26,16.51-17.11,15.09-3.39-.54-6.65-2.08-9.89-3.36a14,14,0,0,0-12,.34c-1.69.86-3.41,1.67-5.08,2.56a10.66,10.66,0,0,1-10.57,0c-1.83-1-3.71-1.86-5.56-2.79A11.07,11.07,0,0,0,5,63.36c-.95.71-2,1.32-3,2V68.3a39.56,39.56,0,0,0,4.39-2.52c3.24-2.45,6.56-2.81,10.15-.87,2,1.06,4,2,6,3a12.69,12.69,0,0,0,11.18,0q2.9-1.35,5.71-2.85a11.36,11.36,0,0,1,10.31-.31c2.64,1.12,5.35,2.09,8,3.18a1.35,1.35,0,0,1,.78.89c.1,1,0,2,0,3.12h-12c-2.88,0-2.88,0-3.46,2.63H31c-.18-2.5-.32-2.63-2.7-2.63-3.8,0-7.6,0-11.41,0H14.27V66.53H11.54V72c-2.73,0-5.21,0-7.68,0-1.39,0-2,.57-2,2,0,3.28,0,3.11,0,6.39,0,1.49.62,2,2.08,2q32.49,0,65,0c1.59,0,2.14-.68,2.11-2.2-.06-3,0-2.65,0-5.7C71,72.18,70.8,72,68.57,72c-2.39,0-4.78,0-7.13,0V68.52c.35,0,.62-.07.9-.08C73.5,67.77,80.7,60.14,80.71,49V23.56h1.43a9.77,9.77,0,0,0,1.21,0C84.73,23.38,85.29,22.36,84.47,21.24ZM10.39,34.08a.8.8,0,0,1-1-.54L8.78,31.3a.72.72,0,0,1,.08-.59.74.74,0,0,1,.48-.36l52-14.06a.81.81,0,0,1,1,.55L63,19.07a.76.76,0,0,1-.07.59.77.77,0,0,1-.48.37Z"/></svg>