<svg id="Capa_1" data-name="Capa 1" xmlns="http://www.w3.org/2000/svg" viewBox="0 0 86.72 83.74"><title>iconos_mejoras</title><path d="M81.27,13.5l3-2.37L81.69,7.57l-2.54,3.3L74.91,6.75,77.49,4,75,.79,72.19,4.42C69.07,3,67.53,3.26,65.26,5.52L51,19.82Q29.12,41.69,7.23,63.51c-2.06,2.05-3.88,4.34-1.79,7.77L2.33,73.79l2.72,3.29L7.6,74l4.45,4.28L9,80.69l2.81,3,2.69-3.26c3.42,1.45,4.56,1.19,7.16-1.42L35.06,65.63q22.2-22.2,44.42-44.37C81.54,19.21,83.35,16.93,81.27,13.5Zm-58.55,59-.85.87C20.65,74.66,19.38,76,18,77.15A1.83,1.83,0,0,1,16.72,77c-2.76-2.6-5.46-5.3-8-8a1.85,1.85,0,0,1-.07-1.31C9.76,66.31,11,65,12.22,63.8c.29-.31.59-.61.88-.9Zm46-46.44L25.62,69.22l-9-9L59.75,17.07Zm9.14-8.65C76.42,18.9,75,20.38,73.57,21.8L72.36,23l-9.62-9.62L64,12.17l4.51-4.48a.91.91,0,0,1,1.48,0q3.57,3.54,7.1,7.09l1,1C78.52,16.21,78.66,16.66,77.88,17.43Z"/><path d="M68.1,39.57,68,39.11h-.8a8.17,8.17,0,0,0-.86,0,8,8,0,0,0-.88.12l-1,.16,0,.49c.46,7-1.61,12.88-6.15,17.45S48,64.06,40.8,63.59l-.54,0L40,67.06l.51.08A23.84,23.84,0,0,0,61.12,60,24,24,0,0,0,68.1,39.57Z"/><path d="M18.42,45.24l0,.54,3.74-.29,0-.54c-.5-7.18,1.53-12.93,6.19-17.59s10.38-6.66,17.55-6.17l.55,0,.22-3.78-.54,0c-9-.6-16.32,2.33-21.85,8.75A24.81,24.81,0,0,0,18.42,45.24Z"/><rect x="41.58" y="1.08" width="3.56" height="7.76"/><rect x="2.02" y="40.61" width="7.76" height="3.58"/><rect x="76.98" y="40.57" width="7.72" height="3.6"/><rect x="41.54" y="75.98" width="3.6" height="7.76"/><polygon points="20.78 17.65 15.3 11.79 12.98 14.28 18.35 19.74 20.78 17.65"/><polygon points="66.11 67.17 71.19 72.41 74 70.48 68.3 64.72 66.11 67.17"/></svg>