<svg xmlns="http://www.w3.org/2000/svg" viewBox="0 0 86.72 83.74"><defs><style>.cls-1{fill:#fff;}</style></defs><title>iconos_mejoras</title><g id="Capa_2" data-name="Capa 2"><polygon class="cls-1" points="4.94 30.47 2.72 23.32 81.53 1.09 84.25 7.83 79.32 10.29 78.98 41.49 82.38 45.62 82.04 65.12 78.47 68.51 78.98 81.19 9.36 81.19 9.19 67.57 5.62 63.15 5.96 44.27 9.92 41.49 9.92 30.13 4.94 30.47"/></g><g id="Capa_1" data-name="Capa 1"><path d="M85.45,6.12l-.92-3.34A3.65,3.65,0,0,0,80,.23l-76.2,21a3.66,3.66,0,0,0-2.56,4.51l.92,3.34a3.67,3.67,0,0,0,3.53,2.69,3.72,3.72,0,0,0,1-.13l1-.27v8.57a3.11,3.11,0,0,1-1.57,2.5,4.41,4.41,0,0,0-1.43,3.25c-.13,6-.06,12-.06,18a5.06,5.06,0,0,0,2,4,3.05,3.05,0,0,1,1,2c.1,3.44,0,6.89,0,10.34,0,2.62,1.08,3.66,3.7,3.66q32.82,0,65.64,0c2.63,0,3.68-1,3.7-3.65,0-3.45,0-6.9.06-10.35a3.06,3.06,0,0,1,1-2,5,5,0,0,0,2-4c0-6,.08-12-.07-18a4.71,4.71,0,0,0-1.55-3.38,3,3,0,0,1-1.43-2.07V38.59h0V11.22l2.14-.59a3.65,3.65,0,0,0,2.56-4.51ZM7.69,45.82a1.58,1.58,0,0,1,1.78-1.75h4.22l-6,6.09C7.69,48.9,7.68,47.36,7.69,45.82Zm0,17c0-2.49,0-4.88,0-7.26,0-.38.49-.78.81-1.11,3.18-3.2,6.36-6.4,9.58-9.56a2.6,2.6,0,0,1,1.47-.8c2.23-.08,4.47,0,6.87,0Zm3.62,1c6.18-6.18,12.38-12.34,18.52-18.57A3.73,3.73,0,0,1,33,44c1.82.1,3.66,0,5.81,0-.5.6-.8,1-1.14,1.35C31.34,51.72,25.06,58.05,18.7,64.3a4.48,4.48,0,0,1-2.6,1.06c-1.92.16-3.87,0-6.18,0C10.58,64.69,10.94,64.26,11.34,63.86ZM38.9,56.3q-4.18,4.26-8.45,8.44a2.54,2.54,0,0,1-1.54.64c-2.12.07-4.26,0-6,0L39.59,48.7c0,1.85,0,4.14,0,6.43A2.08,2.08,0,0,1,38.9,56.3ZM39.51,61V65.3H35.18C36.5,64,38.1,62.41,39.51,61ZM77.6,80.43H10.78V68.55H39.59c0,2.25,0,4.43,0,6.62,0,1.14.1,2.32,1.53,2.35s1.6-1.13,1.59-2.29c0-.65,0-1.3,0-2.16h3a9.13,9.13,0,0,0,.06,2.72c.23.69,1,1.19,1.57,1.77.49-.58,1.21-1.08,1.41-1.75a10.14,10.14,0,0,0,.06-2.72h3a10.06,10.06,0,0,0,.06,2.81c.2.65,1,1.12,1.5,1.66.5-.55,1.25-1,1.46-1.68a10.08,10.08,0,0,0,.06-2.77h3a10.28,10.28,0,0,0,.06,2.72c.2.66.93,1.16,1.43,1.73.53-.59,1.29-1.1,1.52-1.79A8.83,8.83,0,0,0,61,73.08h3a10.26,10.26,0,0,0,.06,2.84c.2.64,1,1.1,1.49,1.64.5-.56,1.38-1.1,1.42-1.69.16-2.41.06-4.84.06-7.36H77.6ZM54.08,63.89h9.75v6h-21v-6h3.82c1.12,0,2.13-.3,2.07-1.62s-1-1.48-2.07-1.45-2.47,0-3.94,0V57c0-5.05,0-10.11,0-15.16,0-1.64.55-2.41,2.26-2.4,5.58,0,11.17,0,16.76,0,1.29,0,2.25.34,2.25,1.86,0,6.41,0,12.83,0,19.49-3.44,0-6.64,0-9.84,0-1.18,0-2.29.17-2.26,1.6S53,63.89,54.08,63.89Zm26.5.17c0,.47-1.11,1.26-1.73,1.29-3,.13-6,.06-9.14.06,3.7-3.7,7.29-7.28,11-10.95C80.66,57.61,80.74,60.84,80.58,64.06Zm-2-12.3C74.74,55.34,71.1,59.15,67,63.22c0-2.71-.06-4.89,0-7.07a2.79,2.79,0,0,1,.83-1.64c3.15-3.21,6.32-6.42,9.57-9.53a2.73,2.73,0,0,1,2.26-.65c.49.16.8,1.27.94,2C81.09,48.54,80.26,50.19,78.58,51.76ZM67.2,50.11v-6h5.94Zm10-9.24h-10C66,37.21,65,36.48,61,36.48H45.85c-4.2,0-5.05.58-6.45,4.42H10.78V30.51L77.2,12.2Zm5.73-33.2a1.14,1.14,0,0,1-.7.55L6,29.23a1.16,1.16,0,0,1-1.43-.81l-.92-3.34a1.11,1.11,0,0,1,.11-.89,1.14,1.14,0,0,1,.7-.55l76.2-21a1.17,1.17,0,0,1,1.43.82L83,6.79A1.09,1.09,0,0,1,82.93,7.67Z"/></g></svg>