<svg xmlns="http://www.w3.org/2000/svg" xmlns:xlink="http://www.w3.org/1999/xlink" viewBox="0 0 24.45 30.76"><defs><style>.cls-1{fill:url(#Degradado_sin_nombre_11);}</style><linearGradient id="Degradado_sin_nombre_11" y1="15.48" x2="24.45" y2="15.48" gradientUnits="userSpaceOnUse"><stop offset="0" stop-color="#29a9e0"/><stop offset="1" stop-color="#0071ba"/></linearGradient></defs><title>minding</title><g id="Capa_1" data-name="Capa 1"><path class="cls-1" d="M24.4,17.41a1.49,1.49,0,0,0-1.85-1.05l-1.2.23-.45.09V16c0-1.12,0-2.18,0-3.24a.61.61,0,0,1,.25-.2,2.32,2.32,0,0,0,1.53-2.19c0-2.62,0-4.79,0-6.86a3.49,3.49,0,0,0-3-3.39A15.65,15.65,0,0,0,17.25,0H17a.79.79,0,0,0-.59.54.45.45,0,0,0,.09.4.65.65,0,0,0,.53.21h1.83a2.47,2.47,0,0,1,2.67,2.66c0,2.13,0,4.25,0,6.22,0,1-.45,1.44-1.45,1.44H8.19a1.1,1.1,0,0,1-1.1-.6h5.62c.92,0,1.3-.38,1.3-1.3V9.22c0-1-.36-1.32-1.32-1.32H6.87c0-.39,0-.78,0-1.17,0-1,0-1.89,0-2.82a2.61,2.61,0,0,1,.71-2,2.68,2.68,0,0,1,2-.77c1.2,0,2.42,0,3.59,0H15c.23,0,.75,0,.76-.57a.57.57,0,0,0-.15-.42A.78.78,0,0,0,15,0H9.2A3.42,3.42,0,0,0,5.77,3c-.1,1-.1,2.06-.1,3.07V7.45c0,.12,0,.24,0,.38V7.9H1.82C1,7.9.55,7.92.28,8.2S0,9,0,9.72A1.07,1.07,0,0,0,1.18,10.9h.94v6.71A3.3,3.3,0,0,0,4.89,21l.78.17v2.89q0,3,0,6c0,.65.19.86.83.86H8a.74.74,0,0,0,.52-.17.76.76,0,0,0,.17-.52c0-.27,0-.54,0-.81V26.78H19.72v3.34c0,.66.17.83.85.83h1.25c.71,0,.88-.17.88-.9V20c0-.61,0-.61.6-.8A1.51,1.51,0,0,0,24.4,17.41ZM7.45,19.7V29.75H6.9V19.64ZM12.82,9.14v.51H1.19V9.14ZM8.67,16.82v-4.1h.57v4.14Zm7.81,2-.59,0a.76.76,0,0,0-.54.19.59.59,0,0,0-.13.42.57.57,0,0,0,.17.41.74.74,0,0,0,.55.15l3.63-.18a.75.75,0,0,1,.15,0v4.27a.94.94,0,0,0,.18.68.59.59,0,0,0,.43.14c.57,0,.57-.53.57-.8V19.71l.59-.07v10.1H20.9V26.42c0-.69-.15-.84-.84-.84H8.67V19.85l.48,0,1.39.08,2.17.05L14,20a.83.83,0,0,0,.59-.17.55.55,0,0,0,.14-.43c0-.53-.5-.56-.7-.57l-1.37-.05c-1.48-.07-3-.13-4.51-.24a18.63,18.63,0,0,1-2.65-.47l-.1,0a.59.59,0,0,1-.27-.4.17.17,0,0,1,.06-.14.41.41,0,0,1,.34,0,37.71,37.71,0,0,0,9.31.72c1.67-.05,3.36-.19,5-.33l1.82-.16a4.79,4.79,0,0,0,1-.2h.06a.46.46,0,0,1,.37,0,.27.27,0,0,1,.12.2.29.29,0,0,1,0,.23.5.5,0,0,1-.31.15l-.62.08c-1.42.2-2.89.4-4.34.57C17.46,18.82,17,18.83,16.48,18.84Zm-9-2.17-2.34-.4V10.92h.61a2.47,2.47,0,0,0,1.62,1.66.35.35,0,0,1,.1.18c0,1.07,0,2.13,0,3.23Zm-4.13-3.5c0-.62,0-1.24,0-1.86v-.38h.59v6.58A1.56,1.56,0,0,0,5.2,19.27c.49.15.52.16.43.64A2.36,2.36,0,0,1,4,19.24a2.32,2.32,0,0,1-.63-1.71C3.37,16.08,3.36,14.6,3.35,13.17Zm15.8,3.69V12.7h.55v4.11ZM10.49,17V12.72h7.4V17Z"/></g></svg>