<svg xmlns="http://www.w3.org/2000/svg" viewBox="0 0 51.32 46.91"><defs><style>.cls-1{fill:#fff;}</style></defs><title>iconos_plataforma</title><g id="Capa_1" data-name="Capa 1"><path class="cls-1" d="M43.26,1.57C43.26.34,42.93,0,41.74,0H39.18Q27.93,0,16.67,0a2.5,2.5,0,0,0-1.59.68C13.9,1.84,12.75,3,11.59,4.14,10.67,5.06,9.75,6,8.82,6.88a2.37,2.37,0,0,0-.76,1.84q0,14.44,0,28.9v7.61c0,1.49.3,1.79,1.79,1.79h31.6c1.5,0,1.8-.3,1.8-1.78V1.57ZM12.14,7l3-3V7ZM10.21,9.13l.46,0h5.14c1,0,1.42-.38,1.43-1.42s0-2.28,0-3.42V2.16H41.11V44.87H10.21Z"/><path class="cls-1" d="M25.16,26c0-1.14-.29-1.42-1.46-1.42h-.77c-.49,0-1,0-1.47,0a1.2,1.2,0,0,0-1,.3,1.32,1.32,0,0,0-.34,1c0,4.27,0,8.55,0,12.82a1.36,1.36,0,0,0,.34,1,1.32,1.32,0,0,0,1,.35h2.1c1.23,0,1.54-.33,1.55-1.53V26Zm-2.14.7V37.88h-.69V26.66Z"/><path class="cls-1" d="M35.63,24.54H35c-.48,0-.95,0-1.42,0a1.41,1.41,0,0,0-1,.3,1.39,1.39,0,0,0-.35,1q0,6.39,0,12.76a1.37,1.37,0,0,0,.36,1,1.39,1.39,0,0,0,1,.35h1.81c1.55,0,1.8-.25,1.8-1.76V26C37.16,24.78,36.91,24.54,35.63,24.54Zm-.57,2.11V37.86h-.71V26.65Z"/><path class="cls-1" d="M15.53,18.26c2.65,0,5.3,0,7.94,0H35.86a1.37,1.37,0,0,0,1-.35,1,1,0,0,0,.28-.76,1,1,0,0,0-.31-.74,1.37,1.37,0,0,0-1-.3H15.62a3.09,3.09,0,0,0-.6,0,1.12,1.12,0,0,0-.85.72.87.87,0,0,0,.17.87A1.8,1.8,0,0,0,15.53,18.26Z"/><path class="cls-1" d="M35.93,20.67H15.61a3.28,3.28,0,0,0-.61,0,1.15,1.15,0,0,0-.86.85.89.89,0,0,0,.32.92,1.82,1.82,0,0,0,1.16.31c2.73,0,5.46,0,8.19,0H36c1.1,0,1.23-.71,1.24-1a1,1,0,0,0-.3-.8A1.35,1.35,0,0,0,35.93,20.67Z"/><path class="cls-1" d="M14.84,13.57a1.47,1.47,0,0,0,.87.15H35.94a.89.89,0,0,0,.5-.13c.17-.12.74-.53.72-1s-.45-.7-.79-.93a1,1,0,0,0-.6-.09H15.58a1,1,0,0,0-.6.09c-.34.22-.7.49-.73.86A1.26,1.26,0,0,0,14.84,13.57Z"/><path class="cls-1" d="M18.79,30a1.34,1.34,0,0,0-.93-.31c-.82,0-1.65,0-2.47,0a1.27,1.27,0,0,0-1,.32,1.31,1.31,0,0,0-.34.94V38.7A1.21,1.21,0,0,0,15.44,40h2.18c1.13,0,1.49-.39,1.5-1.53V33.84c0-1,0-1.94,0-2.91A1.25,1.25,0,0,0,18.79,30ZM17,31.82v6h-.7v-6Z"/><path class="cls-1" d="M31.14,34.78V33.63c0-.91,0-1.82,0-2.73a1.24,1.24,0,0,0-.31-.94,1.31,1.31,0,0,0-.88-.29H27.36a1.21,1.21,0,0,0-.87.3,1.24,1.24,0,0,0-.32.91v.42c0,2.48,0,4.95,0,7.43A1.15,1.15,0,0,0,27.43,40h2.36a1.34,1.34,0,0,0,1-.35,1.45,1.45,0,0,0,.35-1.07c0-.9,0-1.79,0-2.68Zm-2.13-3v6h-.68v-6Z"/><path class="cls-1" d="M20.78,9.11h9.79a1.16,1.16,0,0,0,.92-.38A.91.91,0,0,0,31.64,8a1.59,1.59,0,0,0-.74-.82L30.76,7a.77.77,0,0,0-.56-.1H20.84a1.11,1.11,0,0,0-.91,1.84A1.21,1.21,0,0,0,20.78,9.11Z"/></g></svg>