<svg id="Capa_1" data-name="Capa 1" xmlns="http://www.w3.org/2000/svg" viewBox="0 0 86.72 83.74"><title>icono_mejoras</title><path d="M85.3,2.82a1.71,1.71,0,0,0-.45-1.27,1.76,1.76,0,0,0-1.31-.46h0c-6.34,0-12.54,0-18.42,0a1.78,1.78,0,0,0-1.35.49,1.7,1.7,0,0,0-.42,1.28c.07,1.47-.59,2.57-2.2,3.69-.4.28-.81.55-1.22.81-.75.49-1.52,1-2.24,1.56a8.63,8.63,0,0,0-3.43,6.81,8.62,8.62,0,0,0,3.55,6.75,41,41,0,0,0,3.5,2.36,4.68,4.68,0,0,1,0,7.84,37.61,37.61,0,0,0-3.33,2.22,8.4,8.4,0,0,0,0,13.86c.44.32.9.62,1.35.91s.69.45,1,.69.73.53,1.09.81l.83.62A4,4,0,0,1,63.38,55a4,4,0,0,1-1.33,3.2c-1.1.75-2.3,1.59-3.77,2.63a8.41,8.41,0,0,0-.08,14.31c.55.4,1.12.78,1.68,1.15s1.3.87,1.92,1.33a3.41,3.41,0,0,1,1.53,2.76c.05,1.81.44,2.18,2.3,2.18H83c2,0,2.34-.33,2.34-2.35V2.82ZM82.24,4V79.59H74.38c0-.2,0-.39,0-.58V62.12q0-28.83,0-57.66a1.76,1.76,0,0,1,0-.42,1.09,1.09,0,0,1,.37,0c1.92,0,3.8,0,5.8,0ZM66.45,54.91a7.63,7.63,0,0,0-3.66-6.51c-.87-.53-2-1.25-3-2a5.38,5.38,0,0,1,0-9.09c1-.75,2.07-1.43,3.23-2.18A7.58,7.58,0,0,0,63,22.4l-.43-.28c-.94-.61-1.91-1.23-2.81-1.9a5.66,5.66,0,0,1-2.53-4.56,5.73,5.73,0,0,1,2.55-4.59c.58-.43,1.19-.84,1.78-1.23S62.88,9,63.51,8.51a6.88,6.88,0,0,0,2.75-4.19.76.76,0,0,1,.28-.25c1.31-.05,2.62-.05,4,0h.82v75.6h-.64c-1.43,0-2.92,0-4.37,0l-.06-.06c-.43-2.58-2.21-4.09-3.9-5.22l-.92-.6c-.63-.4-1.28-.82-1.87-1.27a5.64,5.64,0,0,1-2.33-4.37,5.5,5.5,0,0,1,2.24-4.4,35.35,35.35,0,0,1,3.29-2.24A7.64,7.64,0,0,0,66.45,54.91Z"/><path d="M31.26,11.14a2.16,2.16,0,0,0-1.52-.85,1.41,1.41,0,0,0-1,.54c-.92,1,0,2,.41,2.44a46.37,46.37,0,0,1,4.56,5.62A40,40,0,0,1,40.3,47.5a38.92,38.92,0,0,1-6,16.44,43.55,43.55,0,0,1-5.18,6.48.63.63,0,0,1-.12.11,1.34,1.34,0,0,0-.52.85A1.81,1.81,0,0,0,28.87,73a1.22,1.22,0,0,0,.82.26,3.31,3.31,0,0,0,.81-.12,1.41,1.41,0,0,0,.74-.56l.12-.13A43.61,43.61,0,0,0,43.71,41.94a42.76,42.76,0,0,0-2.56-15A43.66,43.66,0,0,0,31.26,11.14Z"/><path d="M32.18,41.91A31.57,31.57,0,0,0,25,21.54,23,23,0,0,0,22.65,19a1.61,1.61,0,0,0-1.27-.26l-.35,0-.64,0v.65c0,.12,0,.23,0,.35a3.09,3.09,0,0,0,.07,1.08,1.7,1.7,0,0,0,.6.81l.19.17a29.59,29.59,0,0,1,0,40.17,3.32,3.32,0,0,1-.27.25,2,2,0,0,0-.87,1.44,1.82,1.82,0,0,0,1.63,1.61h.1a2.06,2.06,0,0,0,1.34-1,3.2,3.2,0,0,1,.22-.27C29,58,31.81,50.94,32.18,41.93Z"/><path d="M20.6,41.78a20.69,20.69,0,0,0-5.44-14L15,27.64a2.27,2.27,0,0,0-1.47-1,1.56,1.56,0,0,0-1.13.48,1.41,1.41,0,0,0-.5,1,2,2,0,0,0,.79,1.4l.23.24a17.82,17.82,0,0,1,.24,23.76,3.57,3.57,0,0,1-.27.28,3,3,0,0,0-.68.86,1.64,1.64,0,0,0-.12.39,2.35,2.35,0,0,0,0,.47,1.32,1.32,0,0,0,.31.88,1.37,1.37,0,0,0,.83.37h.29a3.53,3.53,0,0,0,.51,0,1.65,1.65,0,0,0,.89-.63l.1-.12A20.77,20.77,0,0,0,20.6,41.8Z"/><path d="M5.2,35.14l-.41,0L4,34.94l0,.8a3,3,0,0,1,0,.42,2,2,0,0,0,.26,1.35c2.27,3,2.28,5.71,0,8.62a2,2,0,0,0-.13,2.16,1.28,1.28,0,0,0,1,.54h0a1.91,1.91,0,0,0,1.38-.78A9.22,9.22,0,0,0,9,41.85H9a8.79,8.79,0,0,0-2.48-6.27A1.9,1.9,0,0,0,5.2,35.14Z"/></svg>