<svg xmlns="http://www.w3.org/2000/svg" viewBox="0 0 51.32 46.91"><defs><style>.cls-1{fill:#fff;}</style></defs><title>iconos_plataforma</title><g id="Capa_1" data-name="Capa 1"><path class="cls-1" d="M25.63,46.91h-.55a2.48,2.48,0,0,1-2.33-1.78l-1.24-4.21a17.13,17.13,0,0,1-2.63-.84l-3.51,2.71a2.49,2.49,0,0,1-2.93.08c-.4-.27-.78-.55-1.16-.84a2.48,2.48,0,0,1-.84-2.82L11.92,35a19.13,19.13,0,0,1-1.64-2.26l-4.4.12a2.48,2.48,0,0,1-2.42-1.67c-.16-.46-.31-.92-.44-1.38a2.51,2.51,0,0,1,1-2.76l3.69-2.52c0-.39,0-.78,0-1.17s0-1,.06-1.52L4.09,19.4a2.49,2.49,0,0,1-1-2.79c.15-.49.31-1,.49-1.45A2.48,2.48,0,0,1,6,13.53l4.5.13a18.3,18.3,0,0,1,1.5-2L10.54,7.52a2.48,2.48,0,0,1,.82-2.8c.45-.35.91-.68,1.39-1a2.47,2.47,0,0,1,2.87.12L19.2,6.6a18.5,18.5,0,0,1,2.19-.68l1.25-4.23A2.49,2.49,0,0,1,24.94-.1c.61,0,1.2,0,1.79,0A2.49,2.49,0,0,1,29,1.7L30.27,6a16.82,16.82,0,0,1,2,.68L35.84,4a2.49,2.49,0,0,1,2.92-.08c.49.33,1,.68,1.44,1.05A2.5,2.5,0,0,1,41,7.75L39.51,12a19.2,19.2,0,0,1,1.25,1.71l4.49-.13h0a2.47,2.47,0,0,1,2.41,1.63c.2.55.39,1.12.56,1.68a2.5,2.5,0,0,1-1,2.76l-3.66,2.51c0,.42,0,.86,0,1.28s0,.62,0,.93l3.73,2.55a2.51,2.51,0,0,1,1,2.72q-.23.82-.51,1.62a2.46,2.46,0,0,1-2.42,1.67L41,32.77a18.83,18.83,0,0,1-1.39,2L41.11,39a2.47,2.47,0,0,1-.77,2.77c-.42.33-.85.66-1.3,1a2.48,2.48,0,0,1-2.95-.06L32.62,40a17.92,17.92,0,0,1-2.47.83L28.89,45.1a2.5,2.5,0,0,1-2.28,1.79Zm-.24-2.82h.85l1.26-4.25a2.49,2.49,0,0,1,1.8-1.71,14.9,14.9,0,0,0,2.36-.8,2.51,2.51,0,0,1,2.53.3l3.43,2.64q.38-.27.75-.57l-1.49-4.2a2.52,2.52,0,0,1,.44-2.43,14.5,14.5,0,0,0,1.34-1.9,2.52,2.52,0,0,1,2.2-1.22l4.36.12c.11-.33.21-.65.31-1l-3.69-2.52a2.49,2.49,0,0,1-1.08-2.2c0-.31,0-.63,0-1s0-.83-.06-1.24a2.51,2.51,0,0,1,1.07-2.26l3.63-2.48c-.11-.35-.22-.7-.35-1.05l-4.44.13a2.5,2.5,0,0,1-2.17-1.16,16.5,16.5,0,0,0-1.26-1.72,2.48,2.48,0,0,1-.43-2.43L38.27,7c-.29-.23-.6-.45-.9-.66L33.88,9.05a2.51,2.51,0,0,1-2.46.34,13.56,13.56,0,0,0-2-.68A2.51,2.51,0,0,1,27.61,7L26.35,2.73c-.35,0-.71,0-1.07,0L24,6.92a2.48,2.48,0,0,1-1.82,1.71,14.94,14.94,0,0,0-2.16.66A2.45,2.45,0,0,1,17.64,9L14.09,6.23l-.81.57,1.46,4.09a2.53,2.53,0,0,1-.49,2.5,14.79,14.79,0,0,0-1.44,1.92,2.5,2.5,0,0,1-2.18,1.18l-4.46-.13c-.1.28-.19.56-.28.85l3.58,2.45A2.48,2.48,0,0,1,10.54,22a14.08,14.08,0,0,0-.07,1.45c0,.39,0,.77,0,1.15a2.47,2.47,0,0,1-1.06,2.23L5.8,29.29c.08.26.16.52.25.78L10.4,30a2.51,2.51,0,0,1,2.2,1.2,14.72,14.72,0,0,0,1.59,2.19,2.47,2.47,0,0,1,.45,2.46l-1.46,4.12c.21.16.43.32.66.47l3.47-2.67a2.48,2.48,0,0,1,2.47-.33,15.12,15.12,0,0,0,2.55.81,2.44,2.44,0,0,1,1.83,1.72Zm1.09,0h0Zm18.85-27.7Zm-6-4.57h0Z"/><path class="cls-1" d="M26,31.42A8.41,8.41,0,1,1,34.4,23,8.42,8.42,0,0,1,26,31.42Zm0-14A5.59,5.59,0,1,0,31.58,23,5.6,5.6,0,0,0,26,17.42Z"/></g></svg>