<svg xmlns="http://www.w3.org/2000/svg" xmlns:xlink="http://www.w3.org/1999/xlink" viewBox="0 0 146.89 148.15"><defs><style>.cls-1{fill:url(#Degradado_sin_nombre_22);}.cls-2{fill:url(#Degradado_sin_nombre_22-2);}.cls-3{fill:url(#Degradado_sin_nombre_22-3);}.cls-4{fill:url(#Degradado_sin_nombre_22-4);}</style><linearGradient id="Degradado_sin_nombre_22" x1="29.06" y1="77.23" x2="110.04" y2="77.23" gradientUnits="userSpaceOnUse"><stop offset="0" stop-color="#8ac43f"/><stop offset="1" stop-color="#39b34a"/></linearGradient><linearGradient id="Degradado_sin_nombre_22-2" x1="74.29" y1="51.87" x2="115.12" y2="51.87" xlink:href="#Degradado_sin_nombre_22"/><linearGradient id="Degradado_sin_nombre_22-3" x1="73.61" y1="60.28" x2="99.57" y2="60.28" xlink:href="#Degradado_sin_nombre_22"/><linearGradient id="Degradado_sin_nombre_22-4" x1="0.03" y1="74.57" x2="147.18" y2="74.57" xlink:href="#Degradado_sin_nombre_22"/></defs><title>Revweb</title><g id="Capa_1" data-name="Capa 1"><path class="cls-1" d="M55.75,68c2,2.86,3.93,5.89,6.19,8.63A54.56,54.56,0,0,0,77.58,90a1.86,1.86,0,0,0,2.7-.44C82,87.78,83.72,86,85.57,84.4c3.41-3,7.67-3,11,.11,3.79,3.59,7.49,7.28,11.06,11.09,3.25,3.47,3.27,7.83.12,11.4a97,97,0,0,1-7.3,7.46c-4,3.67-8.89,3.88-13.94,2.94-7.29-1.36-13.83-4.57-20-8.45A86.36,86.36,0,0,1,32.92,71a40.86,40.86,0,0,1-3.75-13c-.51-5,.68-9.44,4.47-13,1.84-1.73,3.55-3.6,5.36-5.37,4.08-4,8.7-4.08,12.8-.14q5,4.79,9.77,9.77c4,4.21,4,8.48,0,12.79C59.82,64,57.92,65.79,55.75,68Zm34.79,44.94a8.91,8.91,0,0,0,7.55-3c1.75-1.81,3.54-3.6,5.29-5.42,2.29-2.37,2.29-4,0-6.34q-4.74-4.79-9.53-9.53c-2-2-3.62-2-5.66,0s-3.89,3.89-5.85,5.82c-1.77,1.75-3.18,2.07-5.28.81A80.85,80.85,0,0,1,67.6,89.1C61,83.72,55.21,77.54,51.51,69.7,50.32,67.17,50.6,66,52.62,64c1.85-1.79,3.71-3.59,5.52-5.43,2.07-2.13,2.08-3.68,0-5.8Q53.31,47.85,48.39,43c-2-2-3.72-2-5.72,0S38.61,47,36.59,49A9,9,0,0,0,34,55.41a26.52,26.52,0,0,0,2.33,11C44.45,85.8,58.16,99.94,77,109.1A34.25,34.25,0,0,0,90.54,112.93Z"/><path class="cls-2" d="M76.86,31.27c3.67,1.2,7.48,2.05,11,3.64C102.6,41.64,111.71,53,115,69c.39,1.9-.24,3.14-1.71,3.43s-2.71-.57-3.09-2.53a40.78,40.78,0,0,0-8.41-18.29,41.58,41.58,0,0,0-24.63-15,4.33,4.33,0,0,1-2.61-1.73C73.7,33.43,75,31.67,76.86,31.27Z"/><path class="cls-3" d="M99.57,70.67a2.32,2.32,0,0,1-1.93,2.47,2.28,2.28,0,0,1-2.79-1.57c-.29-.78-.37-1.63-.62-2.44-2.67-8.82-8.42-14.45-17.39-16.73l-.33-.09c-2.23-.51-3.13-1.45-2.85-3s1.62-2.28,3.83-1.85A28.44,28.44,0,0,1,99.38,69.4C99.47,69.84,99.51,70.29,99.57,70.67Z"/><path class="cls-4" d="M73.61,148.15a73.58,73.58,0,1,1,73.57-73.58A73.67,73.67,0,0,1,73.61,148.15ZM73.61,9a65.58,65.58,0,1,0,65.57,65.57A65.65,65.65,0,0,0,73.61,9Z"/></g></svg>