<svg xmlns="http://www.w3.org/2000/svg" viewBox="0 0 51.32 46.91"><defs><style>.cls-1{fill:#fff;}</style></defs><title>iconos_plataforma</title><g id="Capa_1" data-name="Capa 1"><path class="cls-1" d="M7.13,27.92c-.56-.07-1-.11-1.52-.2a4,4,0,0,1-3.31-3,4.11,4.11,0,0,1,1.08-4.24C9.73,14.08,16.11,7.74,22.45,1.36a4.59,4.59,0,0,1,6.2,0c6.3,6.36,12.64,12.66,19,19a4.23,4.23,0,0,1,1,4.72,4.12,4.12,0,0,1-4,2.73l-.67,0v.88c0,4.34,0,8.68,0,13a4.9,4.9,0,0,1-3.87,5,4.52,4.52,0,0,1-1.22.12H31.7c-1.18,0-1.69-.5-1.69-1.69,0-3.41,0-6.83,0-10.24,0-1.94-.8-2.74-2.75-2.74H23.52A2.28,2.28,0,0,0,21,34.75c0,3.44,0,6.88,0,10.32,0,1.41-.43,1.84-1.82,1.84-2.32,0-4.63,0-7,0a5,5,0,0,1-5.13-5.12c0-4.34,0-8.68,0-13ZM18.26,44.18v-.89c0-2.93,0-5.86,0-8.78a4.9,4.9,0,0,1,4.32-4.92,45.5,45.5,0,0,1,4.82-.11,5,5,0,0,1,5.36,5.36c0,2.85,0,5.71,0,8.56,0,.26,0,.51,0,.81h5.35c2.25,0,3-.79,3-3.05V26.89c0-1.35.46-1.81,1.78-1.82.42,0,.83,0,1.25,0a1.64,1.64,0,0,0,1.23-3Q36.17,12.85,26.92,3.58c-1-1-1.77-1-2.8,0l-11,11L5.44,22.28a1.57,1.57,0,0,0,1.13,2.79H7.89c1.56,0,2,.44,2,2,0,4.88,0,9.76,0,14.63A2.19,2.19,0,0,0,12,44.16C14,44.25,16.1,44.18,18.26,44.18Z"/></g></svg>