<svg id="Capa_1" data-name="Capa 1" xmlns="http://www.w3.org/2000/svg" viewBox="0 0 113.31 101.88"><defs><style>.cls-1{fill:#29a9e0;}</style></defs><title>icono_sensor</title><path class="cls-1" d="M59.59,51V98.27c0,2-.62,3-2.11,3.48a2.9,2.9,0,0,1-3.73-2.42,14,14,0,0,1,0-1.59V4.17c0-.32,0-.63,0-.95a2.95,2.95,0,1,1,5.87,0q0,23.87,0,47.74"/><path class="cls-1" d="M46.82,51.3A44.5,44.5,0,0,1,34.18,82.07c-1.58,1.66-3.37,1.86-4.71.55s-1.13-3.07.35-4.65A38.22,38.22,0,0,0,40.35,45.28a37.17,37.17,0,0,0-9.81-20.61c-.33-.35-.67-.68-1-1a3.07,3.07,0,0,1,0-4.41,3,3,0,0,1,4.39.31A44.79,44.79,0,0,1,42.45,31.7a46.12,46.12,0,0,1,4.37,19.6"/><path class="cls-1" d="M66.49,50.54A44.47,44.47,0,0,1,79.07,19.88c1.6-1.68,3.37-1.93,4.72-.66S85,22.34,83.43,24A38,38,0,0,0,72.58,52.1,38.1,38.1,0,0,0,83.14,77.64a5.94,5.94,0,0,1,1.45,2.2,2.66,2.66,0,0,1-1.39,3.24,2.76,2.76,0,0,1-3.73-.68,86.91,86.91,0,0,1-6.57-8.54c-4.39-7-6.3-14.73-6.41-23.32"/><path class="cls-1" d="M90.2,26.42c1,.71,2.08,1.16,2.48,2a5.66,5.66,0,0,1,0,3c0,.4-.54.76-.87,1.1a26.83,26.83,0,0,0,0,37c1.4,1.5,1.68,2.81.89,4.13-1.1,1.84-3.33,2-5,.24A32.15,32.15,0,0,1,78.54,51a32,32,0,0,1,9-22.72,17.59,17.59,0,0,1,2.61-1.86"/><path class="cls-1" d="M34.78,51.11A32.23,32.23,0,0,1,25.47,73.9c-.9.94-2.06,1.63-3.25.91a4.19,4.19,0,0,1-1.94-2.39,3.82,3.82,0,0,1,1.06-2.78,26.68,26.68,0,0,0,7.32-21.56A26.22,26.22,0,0,0,21.3,32.26c-1.89-2-1.34-4.58,1.05-5.29,1.43-.43,2.44.28,3.35,1.25a32.48,32.48,0,0,1,9.08,22.89"/><path class="cls-1" d="M90.37,50.86a21.13,21.13,0,0,1,5.74-14.24c1.49-1.59,3.26-1.76,4.59-.48s1.18,3-.19,4.52a14.88,14.88,0,0,0,0,20.57c1.37,1.54,1.45,3.31.2,4.51s-3.11,1.12-4.6-.47a21.15,21.15,0,0,1-5.74-14.41"/><path class="cls-1" d="M22.93,51.08a21.14,21.14,0,0,1-5.78,14.24c-1.44,1.52-3.17,1.69-4.49.49s-1.26-3,.08-4.51c5.58-6.32,5.58-14.4,0-20.7-1.34-1.51-1.38-3.33-.1-4.51s3-1.05,4.49.46a21.14,21.14,0,0,1,5.79,14.53"/></svg>