<svg xmlns="http://www.w3.org/2000/svg" viewBox="0 0 79.11 93.4"><title>iconos_var_respuesta</title><g id="Capa_1" data-name="Capa 1"><path d="M67.11,93.4H58V90.84h6.37a40.62,40.62,0,0,0,0-4.83c-.24-1.93-2-3.08-4.28-3.09q-13.71,0-27.41,0c-4.57,0-9.14,0-13.7,0-3,0-4.49,1.47-4.52,4.55,0,1,0,2.08,0,3.32H49.86v2.56H11.78c0-2.52-.16-5,0-7.4a5.82,5.82,0,0,1,3.83-5.06A1.75,1.75,0,0,0,17,78.83c-.09-1.16,0-2.33,0-3.7l3.26-.25C10.45,68.71,4.23,60.41,2,49.44S2.05,28.3,8.74,18.76L2.85,16.51v-2c6.59-1.95,8.22-3.59,9.24-9.27,2.31-.43,2.21-.41,2.76,1.69a32.69,32.69,0,0,0,1.64,4A38.35,38.35,0,1,1,58.72,74.85l3.12.27c0,1.39-.09,2.72,0,4a2.15,2.15,0,0,0,.93,1.52,6.8,6.8,0,0,1,4.3,6.65C67.13,89.29,67.11,91.27,67.11,93.4ZM23.81,16.78c-.76.15-1.4.26-2,.39a9.26,9.26,0,0,0-7,7.12c-.4,2.11-.44,2.14-2.55,1.66l-1.66-5c-.5.64-.72.9-.92,1.19C-2.67,40.36,5.31,66.39,25.78,74.55a7.18,7.18,0,0,0,2.56.43c7.38,0,14.76,0,22.14,0a8.42,8.42,0,0,0,3.2-.71,35.5,35.5,0,0,0,20.52-40c-4.9-24.14-33.51-36-54.08-22.51-.41.27-.78.6-1.51,1.17l5.2,1.62ZM59,77.75H19.76v2.42H59ZM9.71,15.56l3.6,3.64,3.39-3.55-3.47-3.51Z"/><path d="M55.08,93.37H52.66V91h2.42Z"/><path d="M61.84,54.1v2.34c-5.4.65-8.56,3.61-9.24,9.19H50.14c-.65-5.38-3.65-8.49-9.21-9.16,0-.36-.11-.75-.12-1.14s0-.81.07-1.29c5.42-.67,8.57-3.64,9.24-9.25H52c1.21,2.28,1.94,4.71,3.52,6.29s4,2.32,6.06,3.43Zm-10.4-2.52-3.6,3.61,3.53,3.68,3.51-3.57Z"/><path d="M37.33,30.64c.47,1.64.22,2.48-1.72,2.92-3,.69-4.42,3-4.78,6.1H28.34c-.52-3.47-2.27-5.69-5.79-6.46-.53-.12-.8-1.42-1.33-2.44,4.3-.62,6.64-2.69,7.09-6.71H30.8C31.29,27.92,33.48,30.14,37.33,30.64ZM31.94,32l-2.4-2.65-2.42,2.57,2.44,2.31Z"/><path d="M26.22,53.81H23.74V51.4h2.48Z"/><path d="M18.52,59.27H21v2.42H18.52Z"/><path d="M53.79,12.77v2.49H51.41V12.77Z"/><path d="M47.72,27.6H45.43V25.1h2.29Z"/><path d="M41.34,40.67V38.34h2.51v2.33Z"/><path d="M27.79,64.57h2.35V67H27.79Z"/><path d="M56.69,15.45H59v2.37H56.69Z"/><path d="M53.05,33.07v2.35H50.67V33.07Z"/></g></svg>