<svg xmlns="http://www.w3.org/2000/svg" viewBox="0 0 51.32 46.91"><defs><style>.cls-1{fill:#fff;}</style></defs><title>iconos_plataforma</title><g id="Capa_1" data-name="Capa 1"><path class="cls-1" d="M9.77,31.11V26.36a13.64,13.64,0,0,0,1.56.57.82.82,0,0,0,.71-.17,5.91,5.91,0,0,1,4-2.2c1.42-.22,2.83-.51,4.39-.79-.19-.27-.28-.49-.45-.6a7.73,7.73,0,0,1-3.19-4.42,1.07,1.07,0,0,0-.54-.57,3,3,0,0,1-2-2.91c0-2-.08-4,0-5.94A8.92,8.92,0,0,1,20,1,9,9,0,0,1,29.93,2.7a7.22,7.22,0,0,0,1.32.88,4.65,4.65,0,0,1,2.69,4.16c.07,2.54.05,5.08,0,7.62A3,3,0,0,1,32,18.17a1.25,1.25,0,0,0-.61.67,7.77,7.77,0,0,1-3.06,4.26,5.47,5.47,0,0,0-.63.64c1.6.3,3,.59,4.41.81a5.92,5.92,0,0,1,4.06,2.23.8.8,0,0,0,.66.17c.51-.14,1-.36,1.6-.59v4.79a6.21,6.21,0,0,1,.91.28,2.05,2.05,0,0,1,1.33,1.78c0,.93,0,1.86,0,2.79,0,1.77-.49,2.4-2.26,2.86v2.71l-7.66,3c-2,.8-4.08,1.62-6.14,2.38a1.84,1.84,0,0,1-1.16,0c-4.35-1.66-8.68-3.37-13-5-.56-.22-.82-.48-.76-1.1s0-1.27,0-1.91c-.34-.12-.67-.2-1-.34a2,2,0,0,1-1.24-1.76c-.06-.78,0-1.56,0-2.34C7.48,32.23,7.71,31.9,9.77,31.11Zm13.6,14.13c0-4,0-7.8,0-11.63,0-.18-.31-.45-.53-.54q-5.47-2.16-11-4.28a4.5,4.5,0,0,0-.6-.14c0,.82,0,1.55,0,2.28a.86.86,0,0,0,.46.88,3.72,3.72,0,0,1,0,6.39.85.85,0,0,0-.46.89,3.57,3.57,0,0,1,0,.8c-.07.51.16.72.62.89,2.71,1,5.41,2.1,8.11,3.15Zm1.5,0c.32-.11.58-.18.82-.27,3.43-1.34,6.85-2.7,10.3-4,.81-.3,1.13-.69,1-1.52-.07-.42.12-.86-.42-1.2a3.73,3.73,0,0,1,0-6.48c.15-.1.36-.26.37-.4,0-.88,0-1.77,0-2.7a2.92,2.92,0,0,0-.4.06c-3.77,1.46-7.54,2.92-11.3,4.42a.93.93,0,0,0-.38.71c0,1.93,0,3.86,0,5.79Zm7.55-32.59c0-1.65,0-3.31,0-5A3.12,3.12,0,0,0,30.69,5a11.83,11.83,0,0,1-2-1.34A7.82,7.82,0,0,0,16.64,6c-1.07,2.11-.82,4.35-.85,6.56.88.13.7-.58.89-1.06,2.93.3,4.94-1.3,6.75-3.42a6.44,6.44,0,0,0,3.58,3,42.83,42.83,0,0,0,4.64.65C31.67,12.14,31.68,12.67,32.42,12.61Zm-2.32.47a8.49,8.49,0,0,1-6.8-2.65,8.34,8.34,0,0,1-5.2,2.62c0,.72,0,1.4,0,2.07a18.06,18.06,0,0,0,.31,3.62,5.87,5.87,0,0,0,6.12,4.13,5.93,5.93,0,0,0,5.53-5.06A43.65,43.65,0,0,0,30.1,13.08ZM13.33,27.73l7.24,2.81-1.64-4.93C14.94,26.21,14.2,26.48,13.33,27.73Zm21.64,0c-1.52-1.93-3.71-1.58-5.64-2.15l-1.65,5ZM21.21,30.79c.89.35,1.72.68,2.57,1a.81.81,0,0,0,.55,0c.91-.33,1.8-.69,2.66-1l-2.82-2.91ZM9,35c0,.51,0,1,0,1.53a.73.73,0,0,0,.81.75A2.25,2.25,0,0,0,12,35a2.22,2.22,0,0,0-2.17-2.2c-.5,0-.79.24-.81.74S9,34.49,9,35Zm30.21.07V33.59c0-.58-.31-.83-.89-.81A2.21,2.21,0,0,0,36.24,35a2.24,2.24,0,0,0,2.1,2.28c.57,0,.88-.24.89-.81ZM21.38,28.17l1.44-1.52c-.76-.39-1.28-1.28-2.41-1.4Zm4.08-1.53,1.36,1.66,1-3.07C26.7,25.39,26.17,26.26,25.46,26.64ZM22.2,24.29l1.92,1.45L26,24.29ZM16.52,14.17c-.94.73-.92,1.78,0,2.29Zm15.25.05v2.31C32.65,15.73,32.63,14.85,31.77,14.22Z"/></g></svg>