<svg xmlns="http://www.w3.org/2000/svg" viewBox="0 0 86.72 83.74"><defs><style>.cls-1{fill:#fff;}</style></defs><title>iconos_mejoras</title><g id="Capa_2" data-name="Capa 2"><rect class="cls-1" x="2.97" y="9.7" width="81.44" height="38.79"/></g><g id="Capa_1" data-name="Capa 1"><path d="M43.35,50.41h-35C2.82,50.4,0,47.57,0,42.06V15.31C0,9.94,2.88,7.05,8.25,7.05H78.49c5.35,0,8.22,2.9,8.23,8.29V42.25c0,5.28-2.88,8.15-8.16,8.16ZM7.2,47.28c0-3.31,0-6.63,0-10,0-2.51.32-2.83,2.81-2.83H76.72c2.48,0,2.8.32,2.8,2.84,0,3.32,0,6.64,0,10a5.3,5.3,0,0,0,1.16,0c2-.5,3.12-2.17,3.12-4.83q0-13.71,0-27.43a8.17,8.17,0,0,0-.16-1.85,3.67,3.67,0,0,0-4.12-2.92c0,1.1,0,2.22,0,3.35-.09,4.93-3,7.9-8,7.91q-28.2,0-56.39,0c-4.94,0-7.87-3-8-7.92,0-1.17,0-2.33,0-3.5-2.44.11-4.15,1.42-4.17,3.59q-.13,15.06,0,30.13C3.07,46,4.89,47.33,7.2,47.28ZM10.14,10v2.51c0,4.79,1.24,6,6,6H68.56c1.3,0,2.6,0,3.89,0a4.1,4.1,0,0,0,4-3.46,45,45,0,0,0,0-5.07ZM76.75,42.32l-.4-.45H10.27c-.42,1.78.84,1.33,1.6,1.33q31.49,0,63,0c.29,0,.62.1.84,0A7.2,7.2,0,0,0,76.75,42.32ZM10,46.94l.39.46H76.45c.43-1.78-.83-1.33-1.6-1.33q-31.48,0-63,0c-.28,0-.62-.1-.83,0A7.33,7.33,0,0,0,10,46.94Zm0-8.62.42.43H76.47c.4-1.78-.89-1.29-1.64-1.29q-31.47,0-62.95,0c-.29,0-.62-.09-.84,0A7.83,7.83,0,0,0,10,38.32Z"/><path d="M51.65,80.42a34.17,34.17,0,0,1,2-4.61,6.23,6.23,0,0,0,0-7.4c-2.17-3.29-2.08-6.62,0-10,.62-1,.79-2.32,1.34-3.39.32-.64,1-1.5,1.53-1.56,1.15-.13,1.54.92,1.29,1.86a15.56,15.56,0,0,1-1.57,4.38,6.29,6.29,0,0,0,0,7.41c2.18,3.29,2.09,6.62,0,10-.62,1-.81,2.3-1.35,3.39a9.35,9.35,0,0,1-1.48,1.69Z"/><path d="M35.05,55.21a30.94,30.94,0,0,1-1.94,4.44,6.18,6.18,0,0,0-.06,7.4c2.21,3.35,2.12,6.72,0,10.15a11.11,11.11,0,0,0-1.21,3.26c-.23,1-.53,1.82-1.67,1.68a1.46,1.46,0,0,1-1.22-2,17.2,17.2,0,0,1,1.61-4.37,6.17,6.17,0,0,0,0-7.25c-2.26-3.42-2.15-6.83,0-10.29a9.12,9.12,0,0,0,1.16-3.11c.2-1,.52-1.93,1.62-1.63C34,53.62,34.44,54.54,35.05,55.21Z"/><path d="M46.57,72.1l-1.75,4.72c-.49,1.3-.89,2.63-1.5,3.87-.3.6-1,1-1.49,1.5-.44-.56-1.33-1.19-1.24-1.66A12.94,12.94,0,0,1,42,76a6.51,6.51,0,0,0,0-7.71c-2.09-3.18-2-6.42,0-9.71.66-1.13.86-2.51,1.45-3.7.29-.59,1-1,1.5-1.46.44.54,1.31,1.15,1.24,1.62a10.57,10.57,0,0,1-1.27,4.28,6.77,6.77,0,0,0,0,8.3C45.72,68.83,46,70.47,46.57,72.1Z"/><path class="cls-1" d="M76.75,42.32a7.2,7.2,0,0,1-1.06.87c-.22.12-.55,0-.84,0q-31.48,0-63,0c-.76,0-2,.45-1.6-1.33H76.35Z"/><path class="cls-1" d="M10,46.94A7.33,7.33,0,0,1,11,46.08c.21-.12.55,0,.83,0q31.5,0,63,0c.77,0,2-.45,1.6,1.33H10.36Z"/><path class="cls-1" d="M10,38.32A7.83,7.83,0,0,1,11,37.47c.22-.12.55,0,.84,0q31.47,0,63,0c.75,0,2-.49,1.64,1.29H10.39Z"/><path d="M41.84,33.09H36.6c-1,0-2-.4-1.78-1.49a2.28,2.28,0,0,1,1.69-1.38q5.4-.2,10.82,0A2.29,2.29,0,0,1,49,31.6c.21,1.11-.76,1.49-1.77,1.49Z"/><path d="M72.61,27.65c-.59-.59-1.61-1.13-1.68-1.78-.15-1.3,1-1.5,2.1-1.5s2.06.24,2.07,1.44S74,27.35,72.61,27.65Z"/><path d="M78.37,27.65c-.58-.59-1.6-1.15-1.66-1.79-.13-1.29,1-1.5,2.12-1.49s2,.24,2,1.46S79.8,27.35,78.37,27.65Z"/></g></svg>