<svg xmlns="http://www.w3.org/2000/svg" viewBox="0 0 87.42 95.89"><title>iconos_var_respuesta</title><style>path{fill:#fff}</style><g id="Capa_1" data-name="Capa 1"><path d="M29.5,44.05a24.9,24.9,0,0,1-1.84-1.89,5.57,5.57,0,0,1,.79-7.72,2.5,2.5,0,0,1,2.26-.27c.92.59.47,1.45-.22,2.19-1.85,2-1.49,3.81.79,5.16a3,3,0,0,1,1.29,1.94c.53,3.74,2.56,5.48,6.29,5.41a3.85,3.85,0,0,1,2.27.84c1.76,1.36,3.52,1.6,5.29.23a2.3,2.3,0,0,1,2.86-.14,6.08,6.08,0,0,0,8.21-2.54c.52-.94.84-2.41,2.35-1.63s.56,1.92.16,2.94c0,.12-.06.24-.09.36A9.3,9.3,0,0,0,73.74,37.25c-.84-1.57-.81-2.51.45-3.88a7.53,7.53,0,0,0-3.38-12.25,4.11,4.11,0,0,1-2.92-2.68,7.51,7.51,0,0,0-11.31-3.12c-1.55,1.09-2.3.84-3.51-.54s-3-2.15-4.39-3.32a8,8,0,0,1-1.3-1.88c.73-.25,1.65-.91,2.15-.68a27.11,27.11,0,0,1,4.74,2.9c.72.54,1.13.8,2.07.38,5.64-2.51,11.17-.52,14.12,4.91A3.28,3.28,0,0,0,72,18.46,10.61,10.61,0,0,1,77,34.57a2.91,2.91,0,0,0-.23,2.28,12.35,12.35,0,0,1-5,15,3.6,3.6,0,0,0-1.42,2A8.66,8.66,0,0,1,56.85,59a16.51,16.51,0,0,0-2.32-1.11l-.34.41c.46,1.52,1,3,1.38,4.56.71,2.6-.62,4.15-3.3,3.9-.25,0-.49-.09-.74-.09-4.5,0-7.08-2.25-8.25-6.56-.6-2.2-1.73-4.26-2.55-6.41a2.67,2.67,0,0,0-2.78-2,8,8,0,0,1-7.12-4.21c-2.61.22-5,.89-7.3.54a9.69,9.69,0,0,1-7.35-13.25A4.86,4.86,0,0,0,16.3,32a11.05,11.05,0,0,1,6.24-13.15,3.75,3.75,0,0,0,2.16-2.05,9.37,9.37,0,0,1,10.69-5.24,2.75,2.75,0,0,0,2.68-.62,12.15,12.15,0,0,1,3.4-1.87c.52-.18,1.3.43,2,.69-.3.6-.45,1.37-.92,1.76a32.16,32.16,0,0,1-4.07,2.88,3,3,0,0,1-2.13.35c-4.55-1.54-7.91.07-9.61,4.6a3,3,0,0,1-1.62,1.53c-5.46,1.89-7.5,6.18-5.62,11.66a4.13,4.13,0,0,1-.42,2.72,7.17,7.17,0,0,0,1.55,8.4,7,7,0,0,0,8.32.87A5.7,5.7,0,0,0,29.5,44.05ZM53,63.92c-1.11-3.64-2-6.93-3.19-10.12a2.71,2.71,0,0,0-2.26-1A16.08,16.08,0,0,0,43.89,54c1.1,2.68,2.18,5.44,3.37,8.16a2.29,2.29,0,0,0,1.34,1.14C49.9,63.58,51.26,63.68,53,63.92Zm-.68-10.06c1,.53,1.8,1.27,2.56,1.25a5.28,5.28,0,0,1,3.62,1.45,5.46,5.46,0,0,0,8.75-3,13.55,13.55,0,0,1-8.7-2,1.78,1.78,0,0,0-1.31.15C55.77,52.31,54.37,53,52.27,53.86Z"/><path d="M5.46,61.93c3,3.12,3,3.12,1.45,5.7a17.07,17.07,0,0,1,1.71,1,2.7,2.7,0,0,1,1,3.44c-1.82,4.64.16,8,5.2,8.12a53.16,53.16,0,0,0,9.65-.84c5.44-.85,9.54,1.15,12.54,5.53A46.58,46.58,0,0,1,40.3,91c1,2,1.69,2.43,3.83,1.88q13.2-3.36,26.39-6.8c2.35-.61,2.89-1.71,2.12-4a14.6,14.6,0,0,1-.93-3c-.06-.56.5-1.19.78-1.8.6.32,1.51.49,1.74,1a22.08,22.08,0,0,1,1.51,4.41c.65,2.8-1.17,5.33-4.35,6.16C64,90.66,56.68,92.53,49.33,94.42c-1.69.43-3.37.88-5.07,1.28a5.18,5.18,0,0,1-6.28-3,62,62,0,0,0-3.2-6.1,9.24,9.24,0,0,0-9.94-4.41c-2.21.34-4.43.69-6.66.86a22.18,22.18,0,0,1-4.82-.15C8,82.05,4,77.05,6.91,71.07c-3.24-2-3.48-2.66-2.44-5.18-.76-1.75-2-3.25-1.79-4.53s1.77-2.5,2.83-3.85c-.77-.32-1.5-.59-2.21-.93C-.56,54.77-1.1,50.85,2,48c1.91-1.76,3.73-3.63,5.54-5.5a2.2,2.2,0,0,0,.11-3.19,6.34,6.34,0,0,1-.63-7.62,16,16,0,0,0,1-4.32,9,9,0,0,1,.36-2.19c.27-.54,1-.86,1.51-1.28.39.55,1.17,1.17,1.1,1.64A53.69,53.69,0,0,1,9.4,33.28a4.05,4.05,0,0,0,.22,3.84c2.2,3.53,2.19,4.66-.43,7.84A50.37,50.37,0,0,1,4.12,49.9c-1.9,1.74-1.78,3.47.66,4.18,4.4,1.27,4.7,4.48,1.12,7.33A4,4,0,0,0,5.46,61.93Z"/><path d="M44.24,3C36.12,2.94,29,4.43,22.59,8.48a24.66,24.66,0,0,0-9.31,10.23c-.44.9-.88,2-2.16,1.47s-.86-1.73-.37-2.71A28.08,28.08,0,0,1,27.9,2.81C44.17-2.45,59.73-.3,74,9,84,15.59,87.62,25.56,87.41,37.37c-.17,10.43-4.07,18.9-11.9,25.54-2.77,2.35-3.43,5-2.89,8.28,0,.13.11.28.06.36-.38.66-.79,1.31-1.19,2C71,73,70.06,72.59,70,72c-.73-4.1-.51-8,3.26-10.77a31.71,31.71,0,0,0,3.45-3.41,25.25,25.25,0,0,0,7.67-17.55,60.57,60.57,0,0,0-.53-11.9C82.35,20.1,77.36,14.1,70.24,9.84,62.05,5,53.05,3.1,44.24,3Z"/><path d="M48.13,23a8.51,8.51,0,0,1,14.25,4.44,8.75,8.75,0,0,1-3.84,8.91,2,2,0,0,1-1.77-.2,1.71,1.71,0,0,1-.09-1.63,12.22,12.22,0,0,1,1.6-1.8,5.35,5.35,0,0,0-.5-7.83,5.54,5.54,0,0,0-7.88.39c-1.81,1.95-1.81,1.95-3.66,0a5.61,5.61,0,0,0-8-.3,5.49,5.49,0,0,0-.1,8c3.22,3.29,6.48,6.53,9.95,10,1.25-1.24,2.39-2.36,3.51-3.49.76-.76,1.59-1.41,2.53-.4s.14,1.7-.54,2.38c-1,1-1.92,2-2.92,2.9-1.62,1.5-3.46,1.6-5,.1-3.39-3.3-6.78-6.61-10-10.05a8,8,0,0,1-.13-10.62,8.45,8.45,0,0,1,10.78-2.06C46.86,22.06,47.4,22.49,48.13,23Z"/></g></svg>