<svg xmlns="http://www.w3.org/2000/svg" viewBox="0 0 144.8 161.78"><defs><style>.cls-1{fill:#fff;}</style></defs><title>icono_confort</title><g id="Capa_1" data-name="Capa 1"><path class="cls-1" d="M40.78,98c-1.08,9.68-3.23,17.39-13.56,17.39h-.9a8.47,8.47,0,0,1-6.52-2.8c-4-4.38-5.16-13.71-3.71-30.27h0l.36-4.13c1.24-14,4.24-32.6,16-32.6h.9a9.35,9.35,0,0,1,7.22,2.87c2.88,3.16,3.86,8.68,3.18,18.27H54.52l.2-2.18c1.15-12.83-.58-21.57-5.28-26.72C45.9,34,40.61,32.07,33.28,32.07,16.78,32.07,8.47,46,5.51,78.66l-.36,4c-1.8,19.93.52,33.56,6.89,40.54,3.5,3.83,8.2,5.7,14.37,5.7,15.19,0,22.94-9.54,25.11-30.91Z"/><path class="cls-1" d="M92.53,32.07c-17,0-25.22,13.5-28.22,46.59l-.36,4c-1.83,20.27.36,33.49,6.71,40.44,3.57,3.9,8.47,5.8,15,5.8,17,0,25.22-13.5,28.22-46.6l.36-4c1.83-20.26-.36-33.49-6.71-40.44C104,34,99.06,32.07,92.53,32.07ZM103.3,78.66l-.36,4c-1.57,17-4.65,32.72-16.47,32.72h-.9a9.3,9.3,0,0,1-7.18-3c-4-4.37-5-13.37-3.5-30.08l.36-4c1.57-17,4.65-32.72,16.47-32.72h.9a9.3,9.3,0,0,1,7.19,3C103.79,53,104.84,62,103.3,78.66Z"/><path class="cls-1" d="M118.87,127.72h20.57l.67-5.32H127.58l10.26-9.69c2.91-2.82,4.29-4.62,4.73-7.78l.18-1.34a7,7,0,0,0-1.68-5.35c-1.69-1.94-4.49-3-8.1-3-6.44,0-10,2.85-11.1,8.93h6.85c.37-1.65,1.25-3.53,3.62-3.53h.18a3.11,3.11,0,0,1,2.36,1,4.16,4.16,0,0,1,.8,3.39l-.18,1.38a7,7,0,0,1-2.29,4l-13.81,13.2Z"/></g></svg>