<svg xmlns="http://www.w3.org/2000/svg" viewBox="0 0 51.32 46.91"><defs><style>.cls-1{fill:#fff;}</style></defs><title>iconos_plataforma</title><g id="Capa_1" data-name="Capa 1"><path class="cls-1" d="M41.85,26.47a2.26,2.26,0,0,0-2.8-1.59l-1.81.35-.68.13V24.29c0-1.69,0-3.29,0-4.9A.82.82,0,0,1,37,19.1a3.49,3.49,0,0,0,2.31-3.32c.05-3.94.05-7.23,0-10.34A5.23,5.23,0,0,0,34.79.32,23.41,23.41,0,0,0,31.05.21h-.4a1.18,1.18,0,0,0-.89.81.73.73,0,0,0,.13.62A1,1,0,0,0,30.7,2h0c.92,0,1.83,0,2.75,0a3.73,3.73,0,0,1,4,4c0,3.23,0,6.42,0,9.4,0,1.5-.68,2.17-2.19,2.17H17.37a1.64,1.64,0,0,1-1.66-.9H24.2c1.39,0,2-.57,2-2v-.58c0-1.44-.55-2-2-2H15.38c0-.6,0-1.18,0-1.76,0-1.47,0-2.86,0-4.27a4,4,0,0,1,1.06-3,4.17,4.17,0,0,1,3.08-1.16c1.8,0,3.64,0,5.41,0h2.69c.34,0,1.13,0,1.14-.86a.83.83,0,0,0-.22-.64,1.19,1.19,0,0,0-.88-.28H24.73c-1.91,0-3.89,0-5.84,0a5.17,5.17,0,0,0-5.18,4.57c-.14,1.54-.14,3.11-.14,4.63,0,.68,0,1.35,0,2v.69H7.76c-1.18,0-1.93,0-2.34.44S5,13.7,5,14.86a1.61,1.61,0,0,0,1.77,1.78H8.21v3.44c0,2.23,0,4.45,0,6.68a5,5,0,0,0,4.18,5.13l1.17.25V45.61c0,1,.3,1.29,1.27,1.3H17a1,1,0,0,0,.78-.27,1,1,0,0,0,.26-.77V40.61H34.78v5c0,1,.26,1.25,1.29,1.26H38c1.08,0,1.33-.26,1.33-1.37V30.43c0-.92,0-.92.91-1.2A2.28,2.28,0,0,0,41.85,26.47ZM16.26,29.93V45.1h-.83V29.83ZM24.36,14v.76H6.81V14ZM18.09,25.57V19.38H19v6.25ZM29.9,28.63l-.9,0a1.1,1.1,0,0,0-.81.29.79.79,0,0,0-.2.63.84.84,0,0,0,.25.62,1.11,1.11,0,0,0,.84.23l5.48-.28h.22v6.44a1.43,1.43,0,0,0,.27,1,.94.94,0,0,0,.65.22c.87,0,.87-.8.87-1.22,0-1.63,0-3.26,0-4.92V29.94l.89-.11V45.08h-.89v-5c0-1-.23-1.26-1.26-1.26H18.1V30.14l.73.05c.71,0,1.39.1,2.09.12l3.27.08,2,0a1.21,1.21,0,0,0,.89-.25.9.9,0,0,0,.22-.65c0-.81-.76-.84-1.07-.86l-2.06-.08c-2.23-.1-4.54-.19-6.81-.36a28.62,28.62,0,0,1-4-.7l-.15,0a.87.87,0,0,1-.41-.6.27.27,0,0,1,.09-.22.63.63,0,0,1,.51-.05A57.06,57.06,0,0,0,27.46,27.7c2.52-.07,5.07-.29,7.54-.5L37.76,27a9.4,9.4,0,0,0,1.51-.31l.08,0a.77.77,0,0,1,.57,0,.46.46,0,0,1,.18.31.45.45,0,0,1-.05.35.71.71,0,0,1-.46.22l-.94.13c-2.15.29-4.37.6-6.56.85C31.37,28.59,30.62,28.61,29.9,28.63ZM16.3,25.34l-3.53-.6V16.67h.92a3.74,3.74,0,0,0,2.44,2.51.39.39,0,0,1,.16.26c0,1.61,0,3.22,0,4.89Zm-6.24-5.28c0-.94,0-1.87,0-2.81v-.58h.89v10a2.35,2.35,0,0,0,1.91,2.65c.74.22.79.24.67,1a3.62,3.62,0,0,1-2.54-1,3.44,3.44,0,0,1-1-2.58C10.09,24.45,10.08,22.22,10.06,20.06Zm23.86,5.58V19.36h.83v6.2Zm-13.07.18V19.38H32v6.44Z"/></g></svg>