<svg xmlns="http://www.w3.org/2000/svg" viewBox="0 0 142.19 142.19"><defs><style>.cls-1{fill:#fff;}.cls-2{fill:none;stroke:#fff;stroke-miterlimit:10;stroke-width:2px;}</style></defs><title>icono_salud</title><g id="Capa_1" data-name="Capa 1"><path class="cls-1" d="M86.84,142.19H55.35a14.52,14.52,0,0,1-14.5-14.5V101.34H14.5A14.51,14.51,0,0,1,0,86.84V55.35a14.52,14.52,0,0,1,14.5-14.5H40.85V14.5A14.52,14.52,0,0,1,55.35,0H86.84a14.51,14.51,0,0,1,14.5,14.5V40.85h26.35a14.52,14.52,0,0,1,14.5,14.5V86.84a14.51,14.51,0,0,1-14.5,14.5H101.34v26.35A14.51,14.51,0,0,1,86.84,142.19ZM14.5,45.85A9.51,9.51,0,0,0,5,55.35V86.84a9.51,9.51,0,0,0,9.5,9.5H45.85v31.35a9.51,9.51,0,0,0,9.5,9.5H86.84a9.51,9.51,0,0,0,9.5-9.5V96.34h31.35a9.51,9.51,0,0,0,9.5-9.5V55.35a9.51,9.51,0,0,0-9.5-9.5H96.34V14.5A9.51,9.51,0,0,0,86.84,5H55.35a9.51,9.51,0,0,0-9.5,9.5V45.85Z"/><path class="cls-2" d="M9.43,74.94H57.16a.63.63,0,0,0,.63-.52l1.68-8.49a.65.65,0,0,1,1.28,0l1.91,15.08A.65.65,0,0,0,64,81l1.87-26.12a.65.65,0,0,1,1.29,0l2.16,38.35a.65.65,0,0,0,1.29,0l3.06-35.55a.65.65,0,0,1,1.29,0l2.56,24.35a.65.65,0,0,0,1.29,0l1.82-17.47a.65.65,0,0,1,1.28-.07l2.75,13.22a.65.65,0,0,0,1.27,0l1.46-7.5a.65.65,0,0,1,1.25-.08l1.47,4.5a.64.64,0,0,0,.61.44h42.09"/></g></svg>