<svg xmlns="http://www.w3.org/2000/svg" viewBox="0 0 51.32 46.91"><defs><style>.cls-1{fill:#fff;}</style></defs><title>iconos_plataforma</title><g id="Capa_1" data-name="Capa 1"><path class="cls-1" d="M24.21,6.12V1.94c0-1.09.55-1.75,1.45-1.76s1.5.68,1.5,1.79c0,1.37,0,2.75,0,4A33,33,0,0,1,31.48,7.4a13.4,13.4,0,0,1,8,12.43c.06,2.31,0,4.63.15,6.92A12.32,12.32,0,0,0,44,35.24a3.48,3.48,0,0,1,1.21,3.89,3.38,3.38,0,0,1-3.32,2.34c-2.75,0-5.51,0-8.26,0a.72.72,0,0,0-.85.64,7.36,7.36,0,0,1-14.08.11c-.07-.23-.15-.46-.24-.74H10.16a7.67,7.67,0,0,1-1.18,0A3.29,3.29,0,0,1,6.2,39.1a3.25,3.25,0,0,1,1-3.62,13.84,13.84,0,0,0,4-5.82,14.91,14.91,0,0,0,.73-4.78,63.15,63.15,0,0,1,.26-7.42A13.58,13.58,0,0,1,22.83,6.38Zm1.44,32.4h8c2.66,0,5.31,0,8,0a2.56,2.56,0,0,0,.76-.3c-.11-.25-.21-.51-.33-.75s-.18-.16-.27-.25a15.34,15.34,0,0,1-5.1-10.3c-.17-2.32-.14-4.66-.15-7A10.79,10.79,0,0,0,15,18.77c-.14,2.08-.11,4.17-.1,6.26A16.12,16.12,0,0,1,9.52,37.34a3.44,3.44,0,0,0-.48.89,3.59,3.59,0,0,0,.92.28Zm4.09,3H21.61a4.24,4.24,0,0,0,4.12,2.89A4.19,4.19,0,0,0,29.74,41.52Z"/><path class="cls-1" d="M4,19.38A24.09,24.09,0,0,1,10.81,3.11l.26-.26a1.48,1.48,0,1,1,2.15,2,44.37,44.37,0,0,0-2.81,3.5A20.86,20.86,0,0,0,7,19.77a1.4,1.4,0,0,1-1.43,1.52A1.48,1.48,0,0,1,4,19.74Z"/><path class="cls-1" d="M47.28,18.69c0,.39,0,.78,0,1.17a1.44,1.44,0,0,1-2.87.21c-.14-1-.12-2.06-.26-3.08A20.69,20.69,0,0,0,38.57,5.31c-.13-.14-.28-.28-.41-.43a1.52,1.52,0,0,1,.06-2.12,1.46,1.46,0,0,1,2.06.08,23.88,23.88,0,0,1,7,15.85Z"/></g></svg>