<svg xmlns="http://www.w3.org/2000/svg" viewBox="0 0 68.36 89.36"><style>path{fill:#fff;}</style><title>iconos_var_respuesta</title><g id="Capa_1" data-name="Capa 1"><path d="M.69,44V6.26C.69,2,2.63.05,6.9.05c14.26,0,28.52,0,42.78,0a3.79,3.79,0,0,1,3,1.28c4.12,4.34,8.32,8.6,12.4,13A4.34,4.34,0,0,1,66.21,17q.09,32.78,0,65.55c0,3.81-2,5.86-5.87,5.86q-26.91,0-53.82,0C2.75,88.38.7,86.32.69,82.51Q.68,63.28.69,44ZM49,3.5H7c-2.49,0-2.89.41-2.89,2.91V82c0,2.57.39,3,3,3q26.22,0,52.44,0c2.87,0,3.19-.31,3.19-3.12v-64c-2.81,0-5.44,0-8.07,0C51,17.74,49,15.71,49,12,49,9.23,49,6.48,49,3.5ZM59.85,14.33l.23-.4L52.46,7.16c0,1.37,0,3.36,0,5.35a1.71,1.71,0,0,0,1.88,1.81C56.18,14.36,58,14.33,59.85,14.33Z"/><path d="M10.93,30c.29-.79.43-1.23.6-1.66Q14.61,20.65,17.67,13c.39-1,.75-2.23,2-1.91a3.41,3.41,0,0,1,1.9,1.85c2.17,5.18,4.22,10.43,6.31,15.65.41,1,.69,2.08-.46,2.74a1.64,1.64,0,0,1-2.53-.92c-.64-1.47-1.26-3-1.78-4.47a1.54,1.54,0,0,0-1.78-1.2,25.64,25.64,0,0,1-3.28,0A1.62,1.62,0,0,0,16.18,26a25.47,25.47,0,0,1-1.84,4.44,2.54,2.54,0,0,1-2.06,1C11.75,31.32,11.3,30.39,10.93,30Zm10.25-8.84-1.51-3.81-1.5,3.81Z"/><path d="M16.11,45.58l5.23-5.48c.85-.88,1.82-1.62,2.94-.51s.4,2.07-.47,2.94c-2,2-4,4-6,6-1.1,1.12-2.15,1.16-3.24,0-1-1-2-1.94-2.91-2.93A1.64,1.64,0,0,1,11.64,43a1.59,1.59,0,0,1,2.44.12C14.72,43.77,15.25,44.53,16.11,45.58Z"/><path d="M16.2,59.29c2-2.07,3.67-3.85,5.37-5.61.8-.83,1.73-1.24,2.7-.31a1.63,1.63,0,0,1-.1,2.57c-2.17,2.2-4.37,4.39-6.56,6.57a1.75,1.75,0,0,1-2.73,0c-1.07-1-2.13-2.08-3.16-3.16a1.65,1.65,0,0,1-.1-2.57c.89-.85,1.8-.57,2.58.21C14.8,57.63,15.34,58.3,16.2,59.29Z"/><path d="M47.19,74.06H40.82c-1.15,0-2.12-.42-2.12-1.73s1-1.71,2.12-1.72q6.45,0,12.91,0c1.15,0,2.12.41,2.12,1.72s-1,1.72-2.12,1.73Z"/><path d="M16.2,73.64l5.2-5.48c.88-.92,1.91-1.47,3-.37s.34,2-.5,2.81c-2,2-4,4-6,6-1.26,1.24-2.08,1.22-3.36,0-1-1-2-1.93-2.9-2.93-.73-.78-.92-1.83,0-2.38a2.84,2.84,0,0,1,2.4,0A10.94,10.94,0,0,1,16.2,73.64Z"/><path d="M47.21,45.94H40.84c-1.18,0-2.12-.43-2.13-1.7s.89-1.75,2.09-1.75H53.71c1.18,0,2.12.43,2.13,1.71s-.89,1.75-2.09,1.75Z"/><path d="M47.12,59.74c-2.07,0-4.13,0-6.2,0-1.25,0-2.25-.41-2.21-1.8s1-1.67,2.18-1.67H53.63c1.25,0,2.25.41,2.21,1.8s-1,1.67-2.18,1.67C51.48,59.73,49.3,59.74,47.12,59.74Z"/><path d="M31.63,14.23c.29-1.29-.3-3.26,1.92-3.2,2.06.05,1.48,1.93,1.76,3.19,1.28.35,3.29-.24,3.26,1.9s-1.89,1.56-3.23,1.81c-.36,1.26.31,3.37-2,3.22-1.93-.11-1.46-1.85-1.66-3.22-1.29-.29-3.38.28-3.28-1.95C28.47,14,30.37,14.55,31.63,14.23Z"/><path d="M35.92,72.32c-1.11.79-1.68,1.48-2.36,1.61a1.6,1.6,0,1,1,0-3.19C34.22,70.87,34.8,71.55,35.92,72.32Z"/><path d="M35.44,44.57c-.67.45-1.36,1.26-2,1.23s-1.62-1.1-1.54-1.52a2.56,2.56,0,0,1,1.65-1.66c.52-.1,1.24.78,1.87,1.22Z"/><path d="M33,60c-.42-.69-1.21-1.42-1.14-2.07s1.17-1.56,1.6-1.46a2.54,2.54,0,0,1,1.57,1.73c.08.53-.84,1.2-1.32,1.81Z"/></g></svg>