<svg xmlns="http://www.w3.org/2000/svg" viewBox="0 0 144.8 161.78"><defs><style>.cls-1{fill:#777;}</style></defs><title>icono_confort</title><g id="Capa_1" data-name="Capa 1"><path class="cls-1" d="M75.56,5c0-2.27-1.2-3.68-3.14-3.7h0c-1.9,0-3.11,1.39-3.16,3.65,0,.34,0,.69,0,1V155.85a15.73,15.73,0,0,0,0,1.71,3,3,0,0,0,1.38,2.2,3.1,3.1,0,0,0,2.63.39c1.48-.46,2.29-1.25,2.29-4.1V62.56Q75.57,33.81,75.56,5Z"/><path class="cls-1" d="M35.6,129.25A69.28,69.28,0,0,0,55.27,81.39a72.07,72.07,0,0,0-6.8-30.52,69.72,69.72,0,0,0-13.3-18.94,3.93,3.93,0,0,0-2.76-1.34,3.08,3.08,0,0,0-2.12.9c-1.37,1.28-1.31,3.26.16,4.92.27.31.56.6.85.9L32,38A60.68,60.68,0,0,1,48,71.62c2.7,20.38-3.07,38.28-17.14,53.19-1.39,1.47-2.28,3.64-.6,5.28a3,3,0,0,0,2.11.94A4.87,4.87,0,0,0,35.6,129.25Z"/><path class="cls-1" d="M115.36,127.17a8.14,8.14,0,0,0-2-2.9c-11-11.86-16.75-25.85-17.17-41.58-.47-17.51,5.47-32.91,17.65-45.77a5,5,0,0,0,1.6-3.41,2.86,2.86,0,0,0-1-2c-2-1.91-4.25-.2-5.38,1A69.29,69.29,0,0,0,89.53,80.19c.19,14,3.45,25.9,10,36.26a105.94,105.94,0,0,0,8.31,11l2,2.46a2.89,2.89,0,0,0,4,.71A2.74,2.74,0,0,0,115.36,127.17Z"/><path class="cls-1" d="M126.4,44.08l-.69-.43-.77.49a12.37,12.37,0,0,0-2.28,1.68,49.59,49.59,0,0,0-14,35.09A49.82,49.82,0,0,0,123,116.15a4,4,0,0,0,3.27,1.46,3,3,0,0,0,2.27-1.58c.65-1.1,1-2.43-1.22-4.78a44.23,44.23,0,0,1,0-60.83l.47-.47a4.46,4.46,0,0,0,.53-.56l.08-.52a7,7,0,0,0,0-3.25A5.59,5.59,0,0,0,126.4,44.08Z"/><path class="cls-1" d="M18.43,117.47c.38.23,1.39.82,3.32-1.2A49.86,49.86,0,0,0,36.13,81.08a49.88,49.88,0,0,0-14-35.36C21,44.53,20.12,44,19.17,44a3,3,0,0,0-.87.14A3.15,3.15,0,0,0,16,46.28a4.11,4.11,0,0,0,1.3,3.81,43.3,43.3,0,0,1,12.11,26c1.33,13.37-2.72,25.29-12,35.43a4.79,4.79,0,0,0-1.31,3.13A5.27,5.27,0,0,0,18.43,117.47Z"/><path class="cls-1" d="M141.38,58.37a3,3,0,0,0-2.16-.93,4.45,4.45,0,0,0-3,1.64c-5.55,5.88-8.4,13-8.72,21.61.26,8.75,3.11,15.9,8.73,21.88a4.5,4.5,0,0,0,3,1.63,3,3,0,0,0,2.17-.94c1.39-1.34,1.25-3.25-.4-5.1-9.26-10.38-9.26-24.33,0-34.7C142.64,61.62,142.79,59.71,141.38,58.37Z"/><path class="cls-1" d="M8.49,59a4.41,4.41,0,0,0-3-1.54,3,3,0,0,0-2.06.88c-1.44,1.32-1.34,3.27.26,5.08,9.36,10.57,9.36,24.26,0,34.87-1.57,1.79-1.67,3.78-.24,5.07,2.13,1.94,4.23.17,5-.69C14.07,96.76,17,89.69,17.3,81,17.07,72.21,14.19,65,8.49,59Z"/></g></svg>