<svg xmlns="http://www.w3.org/2000/svg" viewBox="0 0 144.8 161.78"><defs><style>.cls-1{fill:#777;}</style></defs><title>icono_confort</title><g id="Capa_1" data-name="Capa 1"><path class="cls-1" d="M124.58,115c3.47,2,6.74,3.83,9.94,5.73,2.08,1.23,3.59,1.7,4.62,1.43a3.36,3.36,0,0,0,1.91-1.79c1.09-1.9.93-3.2-2.92-5.42-3.29-1.89-6.56-3.81-10.13-5.89l-9.08-5.3,4.56-1.27,5.1-1.43c3.57-1,6.66-1.89,9.84-2.7,2.16-.55,3.52-1.29,4.05-2.18a2.84,2.84,0,0,0,.11-2.35,3.31,3.31,0,0,0-1.39-2.15c-1-.55-2.58-.5-4.92.16-6.79,1.92-13.81,3.89-20.83,5.67-2.55.64-5.18,1.09-7.15,0-6.32-3.41-12.5-7-19.05-10.84-2.26-1.31-4.56-2.66-6.92-4l-3-1.73,3-1.73c2.37-1.38,4.66-2.73,6.9-4C95,71.73,100.37,68.53,106,65.6a14.75,14.75,0,0,1,9.38-1.19c4.93,1.06,9.85,2.45,14.61,3.79,2.43.69,4.87,1.38,7.32,2,4.45,1.17,5.08-1.19,5.36-2.2s.87-3.24-3.61-4.46l-20-5.45,19.13-11.24c2-1.16,3-2.18,3.27-3.12.06-.23.23-.95-.62-2.34-1-1.56-2.17-2.76-6.2-.39-3.24,1.91-6.54,3.77-10,5.75l-4.94,2.79-4.09,2.33,1.16-4.56c.47-1.81.88-3.52,1.27-5.15.85-3.52,1.66-6.84,2.68-10,1.39-4.36-.67-5.07-1.77-5.45a3.34,3.34,0,0,0-2.67-.06c-.86.47-1.58,1.7-2.06,3.56-1.75,6.77-3.76,14-6.32,22.87-.49,1.68-1.34,4-3.13,5.11C98.41,62,92.09,65.57,85.41,69.4l-6.6,3.79-3,1.73V71.46c0-2.71,0-5.34,0-7.93,0-6.85-.07-13.32.16-19.82a13.05,13.05,0,0,1,3.24-7.77c4.28-4.66,8.86-9.16,13.29-13.5l2.73-2.67C96.69,18.3,97.45,17,97.45,16a3.26,3.26,0,0,0-1.19-2.23c-1.24-1.21-2.12-1.19-2.75-1A7.63,7.63,0,0,0,90.21,15C88,17.3,85.67,19.52,83,22.1c-1.2,1.18-2.47,2.41-3.82,3.75l-3.4,3.35V24.42c0-2.14,0-4.13,0-6,0-4.14,0-7.82,0-11.49,0-2.05-.34-3.45-1.07-4.17A3.36,3.36,0,0,0,72.26,2C70.66,2,69,2.43,69,6.74c0,3.85,0,7.71,0,11.56v6.08l-4,2.11L61.1,22.18q-3.21-3.55-6.45-7.09c-1.5-1.64-2.86-2.52-3.95-2.53a3.41,3.41,0,0,0-2.36,1.28c-1.22,1.27-2,2.7,1.42,6.07,5.34,5.23,10.73,10.64,16,16.08,1.2,1.24,3,3.1,3.06,5.26C69,48.67,69,56.06,69,63.88q0,3.74,0,7.61V75l-3-1.74-6.62-3.81c-6.56-3.78-12.75-7.34-18.87-11a8.84,8.84,0,0,1-3.39-4.93c-2.26-7.72-4.43-15.59-6.46-23.39-.45-1.73-1.12-2.89-1.95-3.36a3.17,3.17,0,0,0-2.48-.08A3.3,3.3,0,0,0,24,28.08a5.3,5.3,0,0,0,0,3.76c1,3.31,1.86,6.72,2.77,10.32.42,1.68.87,3.42,1.35,5.27L29.4,52l-4.13-2.37-5-2.87c-3.54-2-6.87-3.92-10.14-5.85a7.07,7.07,0,0,0-3.71-1.26c-.6,0-1.49.26-2.41,1.81a2.86,2.86,0,0,0-.56,2.31c.32,1.22,2.07,2.37,3.37,3.12,3.28,1.91,6.54,3.84,10.09,5.93l9,5.3L21.28,59.4l-5.16,1.41c-3.6,1-6.71,1.85-9.92,2.66-2.07.52-3.39,1.24-3.91,2.14a3.16,3.16,0,0,0-.09,2.46c.32,1.18.94,3.38,5.9,2,2.15-.58,4.29-1.18,6.44-1.77,4.87-1.35,9.9-2.74,14.88-4,2.54-.64,5.17-1.09,7.16,0,6.31,3.41,12.48,7,19,10.83,2.25,1.32,4.54,2.66,6.9,4l3,1.73-3,1.73c-2.38,1.38-4.67,2.73-6.92,4-5.75,3.39-11.18,6.59-16.77,9.51a14.71,14.71,0,0,1-9.38,1.16c-4.89-1.06-9.78-2.44-14.5-3.77-2.47-.69-4.94-1.39-7.42-2a5.51,5.51,0,0,0-3.94.12,3.16,3.16,0,0,0-1.39,2.11c-.3,1.13-.85,3.24,3.65,4.44L26,103.57,21.84,106l-5,2.93c-3.51,2.08-6.82,4-10.12,5.94-3.92,2.24-4.11,3.48-3.06,5.4a3.39,3.39,0,0,0,1.9,1.85c1,.28,2.52-.17,4.58-1.37,3.25-1.91,6.57-3.79,10.08-5.77,1.6-.9,3.25-1.83,5-2.82l4.08-2.32-1.16,4.55c-.46,1.8-.86,3.5-1.25,5.13-.85,3.51-1.64,6.83-2.69,10-1.24,3.74.27,4.82,1.91,5.37a3.13,3.13,0,0,0,2.52,0c.88-.47,1.62-1.76,2.13-3.73,2.09-7.92,4.34-16,6.28-22.85l.07-.23c.38-1.39.91-3.28,2.4-4.17,6.66-4,13.3-7.81,20.32-11.86l9-5.19v3.47c0,3.31.21,6.66.41,9.9.49,7.68,1,14.93-1.23,21.6-1.79,5.52-6.78,9.76-11.6,13.86-2,1.71-4.09,3.48-5.84,5.28l-.23.23c-.2.21-.4.42-.61.62-1.56,1.43-2.41,2.75-2.45,3.8a3.07,3.07,0,0,0,1,2.21,3.26,3.26,0,0,0,2.28,1.27q1.63,0,4.09-2.51c2.26-2.31,4.53-4.5,7.15-7L65.6,136,69,132.64v10.78c0,4.15,0,7.84,0,11.53,0,2,.37,3.41,1.09,4.12a3.29,3.29,0,0,0,2.52.71c1.58-.05,3.26-.47,3.23-4.8,0-3.84,0-7.69,0-11.53v-6.17l3.88-1.81,10.86,11.58A5.5,5.5,0,0,0,94,149.12a3.12,3.12,0,0,0,2.2-1,3.34,3.34,0,0,0,1.26-2.31c0-1-.73-2.31-2.14-3.69-5.85-5.76-11.1-11-16-16.05l-.4-.4c-1.26-1.26-2.83-2.82-2.87-4.76-.17-7.56-.16-15.06-.14-23q0-3.73,0-7.59V86.83l3,1.73,6.77,3.89C92,96.13,98.1,99.6,104.05,103.21a9.61,9.61,0,0,1,3.67,5.3c2.13,7.19,4.2,14.67,6.33,22.88.49,1.92,1.22,3.19,2.09,3.66a3.23,3.23,0,0,0,2.6,0c1.68-.55,3.07-1.59,1.87-5.39-1-3.29-1.84-6.66-2.69-10.23-.39-1.62-.79-3.29-1.23-5l-1.14-4.56,4.08,2.34Z"/></g></svg>