<svg xmlns="http://www.w3.org/2000/svg" viewBox="0 0 39.54 40"><defs><style>.cls-1{fill:#fff;}</style></defs><title>iconos_edificios</title><g id="Capa_1" data-name="Capa 1"><path class="cls-1" d="M35.54,40h-31a4,4,0,0,1-4-4V4a4,4,0,0,1,4-4h31a4,4,0,0,1,4,4V36A4,4,0,0,1,35.54,40ZM4.54,2a2,2,0,0,0-2,2V36a2,2,0,0,0,2,2h31a2,2,0,0,0,2-2V4a2,2,0,0,0-2-2Z"/><path class="cls-1" d="M28.54,40h-17V17.11A3.12,3.12,0,0,1,14.65,14H25.43a3.12,3.12,0,0,1,3.11,3.11Zm-15-2h13V17.11A1.11,1.11,0,0,0,25.43,16H14.65a1.11,1.11,0,0,0-1.11,1.11Z"/><circle class="cls-1" cx="23.21" cy="26.5" r="1.5"/></g></svg>