<svg xmlns="http://www.w3.org/2000/svg" viewBox="0 0 85.92 90.94"><title>iconos_var_respuesta</title><g id="Capa_1" data-name="Capa 1"><path d="M11.05,28.84A19.94,19.94,0,0,0,11.73,25a8.06,8.06,0,0,0-.8-3.77C9,18.05,9.55,16.65,13.11,15.8a43.62,43.62,0,0,0,4.55-1.66c.83-.3,1.74-.49,2.1.59s-.38,1.48-1.26,1.8-1.95.84-2.95,1.19-2,.61-3.17,1c.29.46.56.93.86,1.37a6.58,6.58,0,0,1,1,5.43,39.58,39.58,0,0,0,0,18.77,6.65,6.65,0,0,1-1,5.45c-.3.45-.58.92-.92,1.47a7,7,0,0,1,2,.51c2.74,1.75,5.25,1,7.95-.26,3.2-1.45,6.59-2.46,9.85-3.79A3,3,0,0,0,33.63,46c.34-.92-.15-1.56-1.09-2.1a13.79,13.79,0,0,1-7.16-10.73c-.08-.6-.16-1.2-.23-1.78-3.57-.68-5.14-2.05-5.34-4.61-.32-3.89.6-5.36,3.87-6.65-.46-1.79-1.27-3.54-1.29-5.3a7.22,7.22,0,0,1,8.37-7,3.82,3.82,0,0,0,2.16-.39,16.75,16.75,0,0,1,17.4.15c2.52,1.44,5,2.9,7.53,4.39s2.67,3.48.69,5.51c-.85.86-1.73,1.69-2.64,2.57,4,2.27,3.84,4.11,3.44,7.53-.25,2.19-2.15,3.41-5.14,3.74A37,37,0,0,1,53.59,35a13.66,13.66,0,0,1-6.89,8.88c-1,.54-1.32,1.24-1,2.12A2.85,2.85,0,0,0,47,47.6c3.21,1.3,6.47,2.48,9.72,3.67.9.34,1.78.73,1.34,1.89s-1.46.88-2.26.45c-3.2-1.75-5.8-1.79-9.06.75C42,58.06,35.25,57.16,30.5,53a3.09,3.09,0,0,0-3.82-.63c-1.72.79-3.55,1.34-5.31,2.06a5.59,5.59,0,0,0-3.61,4.42H59.57c.16-1.23.22-2.51.49-3.74a13,13,0,0,1,16.65-9.61c.94.3,2.21.49,1.84,1.88s-1.55.85-2.49.56a10.56,10.56,0,1,0,7,12.67,10.22,10.22,0,0,0-1.73-8.91c-.17-.22-.46-.41-.5-.66-.15-.72-.55-1.75-.22-2.14.67-.81,1.49-.25,2.09.46A12.81,12.81,0,0,1,85.75,60a13.32,13.32,0,0,1-5.51,8.88,2.71,2.71,0,0,0-.95,1.87c-.07,5.09,0,10.18,0,15.27,0,3.34-1.61,5-4.92,5H4.87C1.7,90.94,0,89.25,0,86.07Q0,61.23,0,36.4c0-4.59,3-7.52,7.57-7.56C8.69,28.83,9.81,28.84,11.05,28.84ZM76.8,70.61C68.57,72,63.59,69.4,60.49,62.34c-.46-1.05-1.15-.87-1.89-.87H11.78c-5.58,0-9.17,3.54-9.22,9.08-.05,5.09,0,10.18,0,15.27,0,2.14.44,2.59,2.56,2.59q34.49,0,69,0c2.19,0,2.69-.5,2.69-2.66,0-3.41,0-6.82,0-10.23Zm-49-47.82c0,3.07-.05,6.08,0,9.09a11.82,11.82,0,0,0,23.56.8c.24-3.11.09-6.26.09-9.38a3.32,3.32,0,0,0-.27-.8A24.51,24.51,0,0,1,34,18.17C31.15,22.22,31.15,22.22,27.82,22.79Zm29.69-8.18c-3-1.72-5.74-3.37-8.55-5a14.4,14.4,0,0,0-15,0,6.29,6.29,0,0,1-3.31.67c-2.63-.18-4.6.75-5.47,2.9-.79,2,.23,5.49,2,6.69a1.84,1.84,0,0,0,.78.2c1.94.28,2.59-1.09,3.3-2.48,1.12-2.2,2.17-2.51,4.32-1.38.79.41,1.6.79,2.36,1.26C42,20,46.44,20.33,51,20.06a3.08,3.08,0,0,0,1.84-.69C54.39,17.93,55.82,16.36,57.51,14.61ZM10.17,31.39H8.65c-4.72,0-6.1,1.36-6.1,6.07V60.75c0,.58.05,1.16.1,2.21C6.16,58.84,10.58,58.79,15,59l1.43-4c-1.23-.39-2.42-.88-3.65-1.15-3-.65-3.65-2.37-2-5a6.19,6.19,0,0,0,1.16-3.36C11.45,40.91,10.78,36.29,10.17,31.39ZM43,45.57H36.23c.37,3.23-2,4.23-4.55,5,4.29,4.6,12.24,4.54,15.87-.05C44.94,49.85,42.83,48.74,43,45.57ZM54.12,22.71v5.75c2.07.11,2.84-.58,2.9-2.54C57.1,23.53,56.45,22.77,54.12,22.71ZM25,22.21c-1,.67-2.23,1.06-2.38,1.71a7.47,7.47,0,0,0,.25,3.8c.16.5,1.33.69,2.33,1.15,0-2.13,0-3.73,0-5.34A12.44,12.44,0,0,0,25,22.21Z"/><path d="M68.33,28.85c1.27,0,2.55,0,3.83,0a7,7,0,0,1,7.09,7,45.09,45.09,0,0,1,0,5.2c0,.52-.78,1-1.2,1.48-.4-.51-1.09-1-1.15-1.53-.16-1.49,0-3-.07-4.52,0-3.21-1.8-5-5-5.06-1,0-2.09,0-2.9,0-.27,3.51-.53,6.78-.79,10a3.85,3.85,0,0,1-.09.67c-.22.91-.28,2.08-1.65,1.81s-1-1.3-.88-2.17a36.19,36.19,0,0,0-.36-15.47,7.53,7.53,0,0,1,1.31-6.8,4.76,4.76,0,0,0,.4-.75,24.26,24.26,0,0,1-3.77-1.36c-.49-.26-.62-1.18-.92-1.8a5.58,5.58,0,0,1,1.9-.4c1.09.16,2.14.6,3.22.87,1.91.5,3,2.51,1.75,4C66.67,22.85,67.56,25.73,68.33,28.85Z"/><path d="M76.35,54.5c3.2.34,4.17,1.19,4.17,3.52s-1,3.22-4.08,3.48c-.83,3.59-1.64,4.42-4.09,4.21-2-.18-2.77-1.21-3-3.75a17.41,17.41,0,0,1-3.63-1.89c-.53-.45-.59-1.63-.58-2.48,0-2,.88-2.6,4.07-3.14.66-3.47,1.33-4.2,3.8-4.13C75.21,50.38,76,51.31,76.35,54.5Zm1.4,4.24c.53-1.38-.1-1.67-1.32-1.67-2.22,0-2.63-.44-2.71-2.62,0-.22.08-.51,0-.65a8.77,8.77,0,0,0-.9-.93c-.3.32-.8.59-.86,1-.47,2.94-.45,2.92-3.26,3.31-.36,0-.66.52-1,.8.35.32.66.87,1,.93,2.9.4,2.88.37,3.21,3.21,0,.38.58.7.89,1,.3-.36.81-.7.86-1.09.34-3,.31-3,3.27-3.14A7.05,7.05,0,0,0,77.75,58.74Z"/><path d="M39.67,34.56a29.76,29.76,0,0,1,4.07,1.65c.48.28.56,1.24.82,1.89-.68.08-1.52.46-2,.19a5.53,5.53,0,0,0-5.86.05c-.45.26-1.26-.09-1.9-.17.22-.65.24-1.64.69-1.89A32.7,32.7,0,0,1,39.67,34.56Z"/><path d="M34.06,30.89c-.84-.92-1.66-1.42-1.72-2-.11-1.08.91-1.38,1.75-1.17a6,6,0,0,1,1.72,1.16Z"/><path d="M45.3,27.05c.79.84,1.58,1.29,1.64,1.83.14,1.21-.9,1.48-1.8,1.26-.6-.16-1.07-.81-1.6-1.23Z"/></g></svg>