<svg xmlns="http://www.w3.org/2000/svg" xmlns:xlink="http://www.w3.org/1999/xlink" viewBox="0 0 146.89 148.15"><defs><style>.cls-1{fill:none;stroke-miterlimit:10;stroke-width:5px;stroke:url(#Degradado_sin_nombre_22);}.cls-2{fill:url(#Degradado_sin_nombre_22-2);}.cls-3{fill:url(#Degradado_sin_nombre_22-3);}.cls-4{fill:#fff;}</style><linearGradient id="Degradado_sin_nombre_22" x1="21.59" y1="68.31" x2="124.87" y2="68.31" gradientUnits="userSpaceOnUse"><stop offset="0" stop-color="#8ac43f"/><stop offset="1" stop-color="#39b34a"/></linearGradient><linearGradient id="Degradado_sin_nombre_22-2" x1="-0.34" y1="74.08" x2="146.81" y2="74.08" xlink:href="#Degradado_sin_nombre_22"/><linearGradient id="Degradado_sin_nombre_22-3" x1="84.08" y1="94.99" x2="120.27" y2="94.99" xlink:href="#Degradado_sin_nombre_22"/></defs><title>Revweb</title><g id="Capa_1" data-name="Capa 1"><rect class="cls-1" x="24.09" y="49.28" width="98.28" height="38.05" rx="4.26"/><path class="cls-2" d="M73.23,147.65a73.58,73.58,0,1,1,73.58-73.57A73.65,73.65,0,0,1,73.23,147.65Zm0-139.15a65.58,65.58,0,1,0,65.58,65.58A65.65,65.65,0,0,0,73.23,8.5Z"/><path class="cls-3" d="M111.54,117.26l-10.06,4.42L95,107,84.08,117.43V68.31l36.19,33.27-15.17,1Zm-4.13-1.61c-2.33-5.33-4.63-10.57-7-15.93l12.31-.81L87.23,75.46v34.62l8.86-8.46,7,15.93Z"/><path class="cls-4" d="M100.43,99.72l12.31-.81L87.23,75.46v34.62l8.86-8.46,7,15.93,4.32-1.9c-2.33-5.33-4.63-10.57-7-15.93"/></g></svg>