<svg xmlns="http://www.w3.org/2000/svg" viewBox="0 0 84.09 66.14"><defs><style>.cls-1{fill:#fff;}</style></defs><title>iconos_edificios</title><g id="Capa_1" data-name="Capa 1"><path class="cls-1" d="M69.62,23.74H15V5.56a2.63,2.63,0,0,1,2.63-2.62H67a2.63,2.63,0,0,1,2.63,2.62ZM16.76,22H67.89V5.56a.89.89,0,0,0-.9-.89H17.65a.89.89,0,0,0-.89.89Z"/><path class="cls-1" d="M35.52,19.8H26.59a2,2,0,0,1-2-2V9.39a2,2,0,0,1,2-2h8.93a2,2,0,0,1,2,2v8.38A2,2,0,0,1,35.52,19.8ZM26.59,9.09a.29.29,0,0,0-.3.3v8.38a.3.3,0,0,0,.3.3h8.93a.3.3,0,0,0,.3-.3V9.39a.29.29,0,0,0-.3-.3Z"/><rect class="cls-1" x="30.19" y="8.22" width="1.73" height="10.71"/><rect class="cls-1" x="25.42" y="12.71" width="11.27" height="1.73"/><path class="cls-1" d="M57.19,19.8H48.25a2,2,0,0,1-2-2V9.39a2,2,0,0,1,2-2h8.94a2,2,0,0,1,2,2v8.38A2,2,0,0,1,57.19,19.8ZM48.25,9.09a.29.29,0,0,0-.29.3v8.38a.3.3,0,0,0,.29.3h8.94a.31.31,0,0,0,.3-.3V9.39a.3.3,0,0,0-.3-.3Z"/><rect class="cls-1" x="51.86" y="8.22" width="1.73" height="10.71"/><rect class="cls-1" x="47.09" y="12.71" width="11.27" height="1.73"/><path class="cls-1" d="M35.52,38.87H26.59a2,2,0,0,1-2-2V28.45a2,2,0,0,1,2-2h8.93a2,2,0,0,1,2,2v8.39A2,2,0,0,1,35.52,38.87ZM26.59,28.15a.3.3,0,0,0-.3.3v8.39a.29.29,0,0,0,.3.29h8.93a.29.29,0,0,0,.3-.29V28.45a.3.3,0,0,0-.3-.3Z"/><rect class="cls-1" x="30.19" y="27.29" width="1.73" height="10.71"/><rect class="cls-1" x="25.42" y="31.78" width="11.27" height="1.73"/><path class="cls-1" d="M57.19,38.87H48.25a2,2,0,0,1-2-2V28.45a2,2,0,0,1,2-2h8.94a2,2,0,0,1,2,2v8.39A2,2,0,0,1,57.19,38.87ZM48.25,28.15a.3.3,0,0,0-.29.3v8.39a.29.29,0,0,0,.29.29h8.94a.3.3,0,0,0,.3-.29V28.45a.31.31,0,0,0-.3-.3Z"/><rect class="cls-1" x="51.86" y="27.29" width="1.73" height="10.71"/><rect class="cls-1" x="47.09" y="31.78" width="11.27" height="1.73"/><path class="cls-1" d="M69.62,42.8H15V22h54.6ZM16.76,41.07H67.89V23.74H16.76Z"/><path class="cls-1" d="M35.52,57.93H26.59a2,2,0,0,1-2-2V47.52a2,2,0,0,1,2-2h8.93a2,2,0,0,1,2,2V55.9A2,2,0,0,1,35.52,57.93ZM26.59,47.22a.3.3,0,0,0-.3.3V55.9a.29.29,0,0,0,.3.3h8.93a.29.29,0,0,0,.3-.3V47.52a.3.3,0,0,0-.3-.3Z"/><rect class="cls-1" x="30.19" y="46.35" width="1.73" height="10.71"/><rect class="cls-1" x="25.42" y="50.84" width="11.27" height="1.73"/><path class="cls-1" d="M57.19,57.93H48.25a2,2,0,0,1-2-2V47.52a2,2,0,0,1,2-2h8.94a2,2,0,0,1,2,2V55.9A2,2,0,0,1,57.19,57.93ZM48.25,47.22a.3.3,0,0,0-.29.3V55.9a.29.29,0,0,0,.29.3h8.94a.3.3,0,0,0,.3-.3V47.52a.31.31,0,0,0-.3-.3Z"/><rect class="cls-1" x="51.86" y="46.35" width="1.73" height="10.71"/><rect class="cls-1" x="47.09" y="50.84" width="11.27" height="1.73"/><path class="cls-1" d="M69.62,61.87H15V41.07h54.6ZM16.76,60.14H67.89V42.8H16.76Z"/><rect class="cls-1" y="60.71" width="82.04" height="2.31"/></g></svg>