<svg xmlns="http://www.w3.org/2000/svg" viewBox="0 0 86.72 83.74"><defs><style>.cls-1{fill:#fff;}</style></defs><title>iconos_mejoras</title><g id="Capa_2" data-name="Capa 2"><rect class="cls-1" x="13.79" y="27.65" width="61.11" height="52.49"/><rect class="cls-1" x="6.3" y="31.61" width="5.96" height="10.26"/></g><g id="Capa_1" data-name="Capa 1"><path d="M77.83,34.63h3.39V31.35c0-3.28,0-6.56,0-9.83,0-1.23.19-2.44,1.74-2.46s1.8,1.11,1.8,2.38c0,4.76,0,9.51,0,14.26,0,1.92-.52,2.45-2.41,2.48-1.46,0-2.92,0-4.55,0v2.13q0,17.7,0,35.4c0,4.18-2,7-5.6,7.79a7.07,7.07,0,0,1-6.57-2.07c-4.52,3-6.87,3-10.15.31-2,.69-3.82,1.78-5.63,1.79s-3.62-1-5.76-1.74c-3.68,2.66-6.16,2.66-10-.35-4.31,3-6.76,3-10.2.22-1.79.71-3.38,1.71-5.07,1.92-4.19.51-7.49-2.87-7.5-7.39,0-10.27,0-20.54,0-30.81v-2c-1.61,0-3.07,0-4.53,0-2,0-2.4-.46-2.43-2.43,0-.86,0-1.72,0-2.62-1.42-.41-3.52.26-3.45-2,.06-2,1.88-1.53,3.45-1.77,0-1,0-2.1,0-3.16A1.75,1.75,0,0,1,6.27,29.5a14.44,14.44,0,0,1,1.47,0c2.17.19,3.77,0,5.1-2.4,1.86-3.29,6.39-3.74,9.53-1.53.4.28.77.6,1.14.89,4.22-3,6.54-3,10.5,0,4.38-2.93,6.64-2.93,10.09-.29,2.06-.68,3.86-1.73,5.66-1.74s3.63,1.05,5.74,1.73c3.4-2.66,5.88-2.66,10,.32,3.46-2.56,6.52-2.85,9.29-.89C78,27.8,77.81,31.23,77.83,34.63Zm-63,19.27c0,7.48,0,15,0,22.45,0,2.6,1.88,4.18,4.22,3.7,1.7-.35,2.72-1.79,2.72-4q0-15.07,0-30.15c0-4.75,0-9.5,0-14.26,0-2.08-.93-3.38-2.64-3.83-2.35-.6-4.29,1-4.3,3.75C14.83,39,14.85,46.47,14.85,53.9Zm10.49-.07c0,4.48,0,9,0,13.44,0,3.11,0,6.23,0,9.34a3.37,3.37,0,0,0,4,3.47c1.85-.26,2.94-1.73,2.94-4.08V31.92a7.2,7.2,0,0,0,0-1.14,3.46,3.46,0,0,0-5.07-2.63c-1.5.8-1.86,2.14-1.86,3.72C25.35,39.19,25.34,46.51,25.34,53.83Zm10.49,0V75.27c0,.55,0,1.1,0,1.64a3.34,3.34,0,0,0,3.3,3.2A3.44,3.44,0,0,0,42.75,77a11.41,11.41,0,0,0,0-1.31V32.28a9.09,9.09,0,0,0,0-1.48,3.37,3.37,0,0,0-2.51-2.91c-2.35-.67-4.38,1-4.39,3.63C35.81,39,35.83,46.38,35.83,53.81Zm10.49.06c0,7.54,0,15.08,0,22.61a3.46,3.46,0,1,0,6.91.3q.06-22.86,0-45.71a3.39,3.39,0,0,0-5-3,3.63,3.63,0,0,0-2,3.66C46.33,39.12,46.32,46.5,46.32,53.87Zm10.49-.06V75.27c0,.55,0,1.1,0,1.64a3.34,3.34,0,0,0,3.3,3.2A3.43,3.43,0,0,0,63.73,77a12.19,12.19,0,0,0,0-1.48V32.44a14.38,14.38,0,0,0,0-1.47,3.39,3.39,0,0,0-2.38-3c-2.38-.8-4.52.85-4.54,3.59C56.79,39,56.81,46.38,56.81,53.81ZM74.25,54q0-11.13,0-22.28c0-2.38-1.38-3.95-3.43-4s-3.46,1.53-3.52,3.88c0,.38,0,.76,0,1.14V75.18a18,18,0,0,0,0,1.8,3.33,3.33,0,0,0,3.2,3.13,3.45,3.45,0,0,0,3.65-2.85,10,10,0,0,0,.06-1.64Q74.27,64.8,74.25,54ZM8,33v6.88h3.26V33Z"/><path d="M48.31,6.19c-.75,1.71-1.17,3.41-2.15,4.68a5.41,5.41,0,0,0-.47,6.64c.66,1.1,1,2.19-.36,2.94s-2.1-.21-2.72-1.25c-2-3.41-2-6.82.36-9.76A5.25,5.25,0,0,0,43.38,3c-.1-.19-.22-.38-.32-.57-.51-1-.31-2,.69-2.31a2.4,2.4,0,0,1,2.19.54A55,55,0,0,1,48.31,6.19Z"/><path d="M33.61,11.38a16.6,16.6,0,0,1-1.56,3.16,2.43,2.43,0,0,0-.27,3.12c.68,1.07.78,2.09-.43,2.79s-2-.09-2.64-1.1a5.25,5.25,0,0,1,.3-6.52,2.35,2.35,0,0,0,.27-3.1c-.64-1-.7-2,.39-2.69s2.12-.06,2.66,1S33.14,10.15,33.61,11.38Z"/><path d="M61.56,11.38a16.31,16.31,0,0,1-1.5,3.12,2.44,2.44,0,0,0-.34,3.1c.69,1.11.85,2.22-.5,2.9s-2-.26-2.59-1.25a5.31,5.31,0,0,1,.44-6.51,2.24,2.24,0,0,0,.22-3c-.67-1.06-.77-2.13.45-2.8s2.11.11,2.63,1.16A32.44,32.44,0,0,1,61.56,11.38Z"/></g></svg>