<svg xmlns="http://www.w3.org/2000/svg" viewBox="0 0 212.7 209.32"><defs><style>.cls-1,.cls-2,.cls-3{fill:#fff;}.cls-2{opacity:0.71;}.cls-3{opacity:0.63;}</style></defs><title>icono_estudio</title><g id="Capa_1" data-name="Capa 1"><path class="cls-1" d="M178.89,114.47c-7.3.06-13.06,2.29-17.09,8-4.93,7-4.94,30.45,0,37.44,4,5.71,9.79,8,16.91,8,0,4.71.36,9.33-.18,13.84a7,7,0,0,1-3.85,4.68c-19.93,7.67-40,15.08-60,22.54a3.89,3.89,0,0,1-1.11-.06c-.07-1.28-.2-2.59-.2-3.9,0-28.08.06-56.15-.1-84.22,0-3.38,1.17-4.66,4.15-5.75,17-6.22,33.89-12.67,50.83-19,7.26-2.72,10.58-.4,10.62,7.42C178.91,107,178.89,110.51,178.89,114.47Z"/><path class="cls-1" d="M100.57,209.33l-44.09-16.5c-5.35-2-10.67-4.11-16-6-2.89-1-4.66-2.88-4.74-5.95-.12-4.2,0-8.41,0-12.61,2.68-.46,5.17-.56,7.44-1.33,7.36-2.49,12-7.59,12.66-15.43a153,153,0,0,0,.2-18.79c-.41-10.38-7.49-17.34-17.95-18.07-.66,0-1.33-.14-2.32-.25,0-4.67-.24-9.3.07-13.89.31-4.37,4-6.76,8.27-5.21q27.57,10.15,55,20.69a3.91,3.91,0,0,1,2,2.93q.14,44.57,0,89.12A6.22,6.22,0,0,1,100.57,209.33Z"/><path class="cls-1" d="M72.48,34.87a34.77,34.77,0,1,1,35,34.71A34.76,34.76,0,0,1,72.48,34.87Z"/><path class="cls-2" d="M59.51,87.9A66,66,0,0,1,80.09,75.05a5.07,5.07,0,0,1,3.69.54q23.43,12.61,46.82,0a5.63,5.63,0,0,1,3.34-.83c4.77.91,16.93,8.84,20.57,13.28-11.89,4.48-23.89,8.42-35.38,13.52-8.18,3.63-15.37,3.67-23.56,0C84,96.54,72,92.59,59.51,87.9Z"/><path class="cls-3" d="M170.7,141.37c0-2.73-.53-5.6.17-8.13.61-2.21,2.27-5.28,4.07-5.78,5.36-1.48,10.87-1,15.37,3a13.88,13.88,0,0,1,4.58,13.66c-1.56,8.66-12.6,14.67-20.37,10.74-1.78-.9-3.12-3.59-3.67-5.72C170.22,146.67,170.7,144,170.7,141.37Z"/><path class="cls-3" d="M43.78,141.22c0,2.73.15,5.46,0,8.17-.27,3.83-2.5,5.87-6.32,6.14-11.7.8-19.54-6.36-17.89-16.58,1.73-10.64,11.81-13.81,20.26-11.41,1.71.48,3.29,3.44,3.83,5.55C44.29,135.64,43.78,138.5,43.78,141.22Z"/></g></svg>