<svg xmlns="http://www.w3.org/2000/svg" viewBox="0 0 256.54 256.03"><defs><style>.cls-1,.cls-2,.cls-3{fill:#fff;}.cls-2{opacity:0.71;}.cls-3{opacity:0.85;}</style></defs><title>Revweb</title><g id="Capa_1" data-name="Capa 1"><path class="cls-1" d="M128.53,22.74c4.48-4.74,8.12-8.85,12-12.68,13.51-13.24,33.71-13.41,46.63-.5s12.76,33.35-.43,46.67q-25.68,25.92-51.6,51.61c-4.76,4.75-8.56,4.76-13.29,0-17.35-17.29-34.74-34.55-51.95-52-13-13.14-13-33.47-.2-46.27s32.94-12.86,46.27,0C120.06,13.57,123.82,17.8,128.53,22.74Z"/><path class="cls-2" d="M90.21,175.18c-17.51,8.25-24.88,21.9-24.51,40.38.26,13.29,0,26.6,0,40.48H53.68q-21.74,0-43.46,0c-7.11,0-9.72-2.55-9.73-9.52q0-29.47,0-58.95a23.09,23.09,0,0,1,10-19.67c6.19-4.48,8-4.45,14.37-.27a42.44,42.44,0,0,0,47.06-.29c6.84-4.61,14.43-2.14,17.57,5.72C89.69,173.64,89.88,174.25,90.21,175.18Z"/><path class="cls-2" d="M191.23,256V218.27c0-23-4.78-31.56-24-43.14,1.46-5.8,6.33-10.48,11.82-11a6,6,0,0,1,3.48,1.35q26,18.44,52.78,0a6,6,0,0,1,4.41-1c9.39,2.64,16.61,11.55,16.72,21.36.24,20.64.13,41.29.07,61.94,0,4.8-2.63,8.1-7,8.13C229.84,256.1,210.22,256,191.23,256Z"/><path class="cls-3" d="M128.56,256c-12.83,0-25.66,0-38.5,0-6.44,0-9.25-2.68-9.31-9-.1-11.83-.17-23.67,0-35.5C81,200.65,86.67,192.66,96.71,189a6.68,6.68,0,0,1,5.28.54c17.78,12.28,35.34,12.31,52.88.09a6.63,6.63,0,0,1,5.24-.67c10.17,3.66,15.67,11.19,16,21.88.39,12.15.2,24.32.07,36.49-.06,6-3,8.65-9.14,8.67C154.22,256.08,141.39,256,128.56,256Z"/><path class="cls-2" d="M181.3,131.85a27.55,27.55,0,0,1,55.09.19,27.55,27.55,0,1,1-55.09-.19Z"/><path class="cls-2" d="M75.6,132.17a27.54,27.54,0,1,1-27.48-27.71A27.52,27.52,0,0,1,75.6,132.17Z"/><path class="cls-3" d="M128.29,128.65a27.57,27.57,0,1,1,.06,55.13,27.57,27.57,0,0,1-.06-55.13Z"/><path class="cls-1" d="M39.53,65.3c-.75,1-1.88,3.64-3.88,4.84a163.28,163.28,0,0,1-16.42,8.35,7.32,7.32,0,0,1-10-3.76c-1.63-3.64-.32-7.53,3.65-9.66,5.26-2.83,10.59-5.57,16.06-8C34.13,54.76,39.47,58.25,39.53,65.3Z"/><path class="cls-1" d="M248.43,70.23c0,6.94-5.39,10.57-10.64,8.28-5.62-2.46-11.1-5.29-16.47-8.27a7.12,7.12,0,0,1-3-9.85A7.19,7.19,0,0,1,228,57.05a168.88,168.88,0,0,1,16.45,8.31C246.49,66.55,247.64,69.21,248.43,70.23Z"/><path class="cls-1" d="M39.51,13.93c0,6.83-5.14,10.63-10.07,8.52a160.89,160.89,0,0,1-17.37-8.7C8.51,11.69,7.49,8.13,9.39,4.21A7.09,7.09,0,0,1,19.11.82a172.41,172.41,0,0,1,16.46,8.3C37.58,10.32,38.74,13,39.51,13.93Z"/><path class="cls-1" d="M248.44,9.1c-.8,1-2,3.66-4,4.85A172.58,172.58,0,0,1,228,22.27a7.23,7.23,0,0,1-9.76-3.36,7.16,7.16,0,0,1,3.11-9.85c5.53-3,11.17-5.93,17-8.41C243.2-1.44,248.46,2.37,248.44,9.1Z"/></g></svg>