<svg xmlns="http://www.w3.org/2000/svg" viewBox="0 0 144.8 161.78"><defs><style>.cls-1{fill:#fff;}</style></defs><title>icono_confort</title><g id="Capa_1" data-name="Capa 1"><path class="cls-1" d="M55.53,41.58c-.93,3.81-1.89,7.75-2.71,11.66a4.17,4.17,0,0,1-3.5,3.52C39.63,59.36,33,65.23,29.65,74.2,25.72,84.69,22,94.94,19.16,102.71c-.54,1.46-.93,3.53.24,5.07,1,1.26,2.79,1.93,5.27,2,8.59,0,16.32.06,24,0h.24c1.92,0,3.06.45,3.82,2.65,2,5.82,7.75,9.68,14.58,9.83,1.59,0,3.28,0,5.32,0,7-.12,12.73-3.92,14.84-9.93.78-2.18,1.93-2.56,3.79-2.56,8.14.09,16.49.06,24.3,0,2.43,0,4.22-.69,5.17-1.94,1.19-1.56.79-3.67.25-5.16q-4-11-8.06-22l-2.2-6c-3.45-9.39-10.28-15.46-20.29-18.07a3.62,3.62,0,0,1-3-3.17c-.5-2.27-1.07-4.57-1.61-6.8l0-.11c-.66-2.7-1.35-5.49-1.93-8.28-.64-3.09-2.26-4.67-5.24-5.12L77.72,33V24.5c0-6.68,0-13.22,0-19.76,0-3.44-.16-3.88-4.31-3.9-1.36,0-2.72,0-4.07,0H65.41a3.47,3.47,0,0,0-2.32.68,2.52,2.52,0,0,0-.68,1.94c0,1.44,0,2.87,0,4.31V8.2c0,5.48,0,11.14.14,16.74,0,.49.78,1.12,1.46,1.68.28.23.56.46.81.7q.3-.33.63-.66A6.58,6.58,0,0,0,67,24.61a5.53,5.53,0,0,0,.13-2.36c0-.41-.06-.81-.06-1.2V5.23h5.77v28H69.4c-2.27,0-4.48,0-6.69,0-4,0-5.44,1.11-6.33,4.82Zm27.1,69.51c-.9,3.7-4.53,6.44-9,6.83-1.31.11-2.53.17-3.67.17-6.85,0-10.59-2.1-12.56-6.86l-.57-1.38H82.94ZM105.9,75.22c1.5,3.84,2.89,7.65,4.35,11.69l.26.72L112,91.69l.5,1.34H38.09c-.26,0-.53,0-.8-.05a3.48,3.48,0,0,0-1.68.1,7.85,7.85,0,0,0-1.81,1.5l-.47.47c.17.16.33.33.49.5a8.81,8.81,0,0,0,1.92,1.68,3.17,3.17,0,0,0,1.59.09c.32,0,.61,0,.87,0h75.86l2.89,8H23.41l.45-1.6c.2-.75.38-1.39.6-2l1.16-3.17c2.68-7.35,5.45-15,8.22-22.42C37.7,65.69,46.31,59.94,58.07,59.91c8.8,0,16.73,0,24.63,0C93.51,60,102.18,65.7,105.9,75.22ZM61.25,37.65H78.84l4.27,17.9H57Z"/><path class="cls-1" d="M16.77,156.88c2.57-6.38,5.09-12.91,7.53-19.22l2.24-5.79c.14-.36.27-.72.43-1.19l.28-.79-.41-.49-.08-.1c-.41-.5-.91-1.11-1.25-1.11h0c-1,.08-2.64.83-2.95,1.57-3.85,9.39-7.46,18.79-10.48,26.74a2.37,2.37,0,0,0,.53,2.55,1.69,1.69,0,0,0,1.72.38A4.83,4.83,0,0,0,16.77,156.88Z"/><path class="cls-1" d="M128.08,158.37a2.18,2.18,0,0,0,0-1.92l-.48-1.25c-3.24-8.43-6.56-17.07-10-25.49-.19-.46-1.08-.82-1.86-1.14-.34-.14-.66-.27-1-.41-.16.28-.34.56-.52.84-.47.74-1,1.59-.86,2,2.76,7.58,5.76,15.21,8.65,22.59l1.65,4.22c.28.7.62,1.39,1,2.06l.3.62,1-.9.23-.06A2.9,2.9,0,0,0,128.08,158.37Z"/><path class="cls-1" d="M50.75,131.84c-.48-.55-1-1.19-1.51-1.19h0a3.67,3.67,0,0,0-2.68,1.73c-2,8.36-3.78,16.56-5.25,24.35-.08.44.61,1.21,1.16,1.83.26.29.5.56.71.83.24-.17.5-.33.76-.49.8-.5,1.56-1,1.76-1.52a39.62,39.62,0,0,0,1.39-5.71c.14-.72.28-1.42.43-2.12l2.32-10.94,1.34-6.31c-.12-.12-.25-.27-.39-.43l.72-.69Z"/><path class="cls-1" d="M97.89,151.9c-1.45-6.81-2.83-13.25-4.37-19.74h0c-.09-.38-1-.81-1.6-1.13-.31-.15-.61-.3-.88-.46-.21.26-.44.51-.67.75-.54.57-1.24,1.31-1.17,1.68,1.55,8.15,3.33,16.45,5.3,24.66a3.72,3.72,0,0,0,2.75,1.65c.45,0,1-.68,1.45-1.22.16-.19.29-.36.41-.48Z"/><path class="cls-1" d="M72.42,141.66c0-2.71.08-5.52-.15-8.25,0-.65-.76-1.35-1.45-2-.27-.26-.52-.51-.75-.76-.23.25-.49.5-.74.74-.74.7-1.47,1.39-1.49,2-.22,7.7-.22,15.53,0,23.26,0,.6.73,1.3,1.43,2,.28.27.54.53.77.79.23-.25.48-.49.72-.73.74-.7,1.46-1.4,1.51-2,.23-2.82.19-5.7.15-8.5V148c0-1.06,0-2.11,0-3.16s0-2.07,0-3.1Z"/></g></svg>