<svg xmlns="http://www.w3.org/2000/svg" viewBox="0 0 89.23 33.99"><defs><style>.cls-1{fill:#fff;}</style></defs><title>iconos_edificios</title><g id="Capa_1" data-name="Capa 1"><path class="cls-1" d="M84.93,34H4.29A4.3,4.3,0,0,1,0,29.7V4.29A4.3,4.3,0,0,1,4.29,0H84.93a4.3,4.3,0,0,1,4.3,4.29V29.7A4.3,4.3,0,0,1,84.93,34ZM4.29,2.83A1.47,1.47,0,0,0,2.83,4.29V29.7a1.47,1.47,0,0,0,1.46,1.46H84.93a1.46,1.46,0,0,0,1.46-1.46V4.29a1.46,1.46,0,0,0-1.46-1.46Z"/><path class="cls-1" d="M33.5,27.56H18.9a3.32,3.32,0,0,1-3.32-3.32V10.54A3.32,3.32,0,0,1,18.9,7.22H33.5a3.32,3.32,0,0,1,3.32,3.32v13.7A3.32,3.32,0,0,1,33.5,27.56ZM18.9,10.05a.49.49,0,0,0-.49.49v13.7a.49.49,0,0,0,.49.49H33.5a.49.49,0,0,0,.49-.49V10.54a.49.49,0,0,0-.49-.49Z"/><rect class="cls-1" x="24.79" y="8.64" width="2.83" height="17.51"/><rect class="cls-1" x="17" y="15.97" width="18.41" height="2.83"/><path class="cls-1" d="M68.91,27.56H54.31A3.32,3.32,0,0,1,51,24.24V10.54a3.32,3.32,0,0,1,3.32-3.32h14.6a3.32,3.32,0,0,1,3.32,3.32v13.7A3.32,3.32,0,0,1,68.91,27.56ZM54.31,10.05a.49.49,0,0,0-.49.49v13.7a.49.49,0,0,0,.49.49h14.6a.49.49,0,0,0,.49-.49V10.54a.49.49,0,0,0-.49-.49Z"/><rect class="cls-1" x="60.19" y="8.64" width="2.83" height="17.51"/><rect class="cls-1" x="52.4" y="15.97" width="18.41" height="2.83"/></g></svg>