<svg xmlns="http://www.w3.org/2000/svg" viewBox="0 0 212.7 209.32"><defs><style>.cls-1{fill:#fff;}</style></defs><title>Revweb</title><g id="Capa_1" data-name="Capa 1"><path class="cls-1" d="M32.76,27.47a12,12,0,0,1-12.06-12,12.11,12.11,0,1,1,24.22.11A11.94,11.94,0,0,1,32.76,27.47Z"/><path class="cls-1" d="M177.4,201.14a11.76,11.76,0,1,1,11.9-11.8A11.9,11.9,0,0,1,177.4,201.14Z"/><path class="cls-1" d="M37.44,176a8,8,0,1,1-7.83-8A8,8,0,0,1,37.44,176Z"/><path class="cls-1" d="M205.84,82.76c-7.72-5.92-18.94-4.46-23.9,4-2.79,4.79-6.52,5.59-10.83,5.23-5.66-.48-11.24-1.47-12.91-8.66-.89-3.87-3.34-7.27-5.59-10.61-.68-1-1.57-1.92-1-3.37,2.92-7.77,6.56-14.75,15.58-17.08a11.24,11.24,0,0,0,8.13-12.43,11.55,11.55,0,0,0-10.12-10c-5.73-.59-11.55,2.64-12.19,8.24-.69,6.1-4.72,9.42-8.28,13.26-3.88,4.17-9,4.82-14,2.34-6.38-3.17-13.09-5.76-20.22-5.6-6.79.16-9.87-3.93-11.5-9.09-1.14-3.6-4.12-7.71.39-11.75a14.89,14.89,0,0,0,3.17-17.91A17.6,17.6,0,0,0,84.88.15C77,1.31,71.07,6.93,69.94,14.24a15.35,15.35,0,0,0,8.79,16c3.07,1.39,4.58,3.14,4.76,6.36a29.17,29.17,0,0,0,.67,3.67c1.17,6.56-1.11,11.22-6.77,14.4a69.59,69.59,0,0,0-8.31,5.46C63.34,64.56,53.84,61.84,51.5,55s-7.61-10.05-14-8.54c-5.9,1.4-9.36,6.55-8.62,12.83s5.63,9.9,12.74,9.76c6.77-.14,12.38,7.92,9.85,14.21a54.13,54.13,0,0,0-4.29,21.65c-.55,2.88,1.47,6.55-2,9-2.35,1.7-4.54,3.88-7.17,4.92-4.9,1.93-9.45,4.5-15.43.88-7.63-4.63-17.4-.38-21.14,7.82A16.06,16.06,0,0,0,9,148.72c8,3.95,18.33,1,21.4-7.28,1.94-5.2,5.34-6.64,9.77-7.88,4-1.12,8-.54,12-.44,1.58,0,2.7,1.28,3.54,2.63a60.56,60.56,0,0,0,12.24,14c2,1.67,2.37,3.62,2.23,6.24-.36,6.45-3,12-5.81,17.57-1.06,2.13-2.14,3.84-4.54,5A11.16,11.16,0,0,0,54.3,193,11.64,11.64,0,0,0,67.86,200c5.81-1.53,9.66-6.9,8.44-12.92a11.42,11.42,0,0,1,1.4-8.21c1.17-2.19,2.15-4.49,3.27-6.71,3.81-7.54,8.49-10.12,16.74-9.3a7.75,7.75,0,0,0,1.66.09c7.54-1,12.23,2.82,14.64,9.4,1.94,5.33,5.36,10.75.72,16.68-1.65,2.11-1.8,5.13-1.25,8,1.34,7,6.81,12,13.68,12.32a14.55,14.55,0,0,0,14.47-10.85c1.76-6.45-1.23-13-7.49-16.4-1.3-.7-2.56-1.09-3.07-2.95-1.56-5.78-2.87-11.47-1.8-17.56a7.3,7.3,0,0,1,4-5.81,46.49,46.49,0,0,0,10.41-7.52,7.11,7.11,0,0,1,6.38-2.14c5.21.74,9.28,2.93,11.41,8.1a11.35,11.35,0,0,0,14.09,6.39,11.63,11.63,0,0,0,7.87-13.41,11.88,11.88,0,0,0-12.67-9.11,10.73,10.73,0,0,1-11.24-13.83c.68-2.1,1.63-4.25,1.68-6.39.16-6.45,4.39-9,9.58-10.93,4.75-1.72,8.64-.79,11.74,2.85a16.62,16.62,0,0,0,25.52.07C215.06,101.86,214,89,205.84,82.76Zm-96.16,65.11h0c-9.32,2.12-17.87-.64-25.74-5.06A42.55,42.55,0,0,1,69.72,80.93c9-12.82,21.93-18.89,37.71-18.63a2.7,2.7,0,0,1,2.25.81c15.34.47,30.95,13.48,36.08,29.68C154.16,119.36,134.56,145.57,109.68,147.87Z"/><path class="cls-1" d="M91.64,104.67a11.21,11.21,0,0,1-11-11.12c0-5.72,5.46-11.19,11.21-11.18S103.11,88,103,93.64,97.37,104.75,91.64,104.67Z"/><path class="cls-1" d="M105.26,135.43a6.31,6.31,0,1,1,6.25-6.28A6.48,6.48,0,0,1,105.26,135.43Z"/><path class="cls-1" d="M125.15,115.12c-3.12,0-5.17-1.94-5.22-4.9a5.26,5.26,0,1,1,10.52-.19C130.52,113.27,128.57,115.15,125.15,115.12Z"/></g></svg>