<svg xmlns="http://www.w3.org/2000/svg" viewBox="0 0 146.89 148.15"><defs><style>.cls-1{fill:#fff;}</style></defs><title>Revweb</title><g id="Capa_1" data-name="Capa 1"><path class="cls-1" d="M73.45,147.65A73.58,73.58,0,1,1,147,74.08,73.66,73.66,0,0,1,73.45,147.65Zm0-139.15A65.58,65.58,0,1,0,139,74.08,65.66,65.66,0,0,0,73.45,8.5Z"/><path class="cls-1" d="M73.44,104q-17.13,0-34.26,0c-5.23,0-8.28-3-8.28-8.24q0-21.7,0-43.41c0-5.21,3-8.24,8.28-8.24h68.69c5.12,0,8.2,3.06,8.2,8.16q0,21.78,0,43.57c0,5.1-3.08,8.16-8.2,8.16Q90.65,104,73.44,104ZM39.72,49.21c.47.51.78.88,1.12,1.21q15,15,29.93,30c2,2.05,3.4,2,5.46,0q15-15,29.93-30c.33-.33.63-.69,1.08-1.18ZM39.65,99H107l-21.26-21c-1.83,1.85-3.85,3.9-5.89,5.94-4.17,4.19-8.53,4.19-12.71,0-2.06-2.07-4.09-4.16-6-6.13ZM56.92,74.23,36,53.47V95Zm54,20.91V53.45c-6.88,6.82-14,13.82-21,20.83Z"/></g></svg>