<svg xmlns="http://www.w3.org/2000/svg" viewBox="0 0 146.89 148.15"><defs><style>.cls-1{fill:#fff;}</style></defs><title>Revweb</title><g id="Capa_1" data-name="Capa 1"><path class="cls-1" d="M73.45,147.65A73.58,73.58,0,1,1,147,74.08,73.66,73.66,0,0,1,73.45,147.65Zm0-139.15A65.58,65.58,0,1,0,139,74.08,65.66,65.66,0,0,0,73.45,8.5Z"/><path class="cls-1" d="M37.64,60.8A36.14,36.14,0,0,1,65.35,26.42c19.63-4.78,40.47,9.09,43.49,29,1.54,10.16-1.28,19.16-6.69,27.5-8,12.3-16.11,24.49-24.2,36.71-2.65,4-6.29,4-8.92,0q-12.2-18.39-24.31-36.86a41,41,0,0,1-7.07-20.54C37.62,61.81,37.64,61.31,37.64,60.8Zm35.92,57.79c1.59-2.39,3.06-4.58,4.51-6.8,7.37-11.26,14.93-22.4,22-33.83a30.59,30.59,0,0,0,3.82-25.11A31.63,31.63,0,0,0,45.29,47C40,57.65,40.76,68.14,46.84,78c8.36,13.47,17.3,26.59,26,39.85A8.18,8.18,0,0,0,73.56,118.59Z"/><path class="cls-1" d="M73.46,42.43a19,19,0,1,1-19,18.88A19,19,0,0,1,73.46,42.43Zm-.27,33.71A14.74,14.74,0,1,0,58.7,61,14.8,14.8,0,0,0,73.19,76.14Z"/></g></svg>