<svg xmlns="http://www.w3.org/2000/svg" viewBox="0 0 146.89 148.15"><defs><style>.cls-1{fill:#fff;}</style></defs><title>Revweb</title><g id="Capa_1" data-name="Capa 1"><rect class="cls-1" x="24.09" y="49.28" width="98.28" height="38.05" rx="4.26"/><path class="cls-1" d="M118.11,89.83H28.35a6.77,6.77,0,0,1-6.76-6.76V53.54a6.77,6.77,0,0,1,6.76-6.76h89.76a6.76,6.76,0,0,1,6.76,6.76V83.07A6.76,6.76,0,0,1,118.11,89.83Zm-89.76-38a1.79,1.79,0,0,0-1.76,1.76V83.07a1.79,1.79,0,0,0,1.76,1.76h89.76a1.78,1.78,0,0,0,1.76-1.76V53.54a1.78,1.78,0,0,0-1.76-1.76Z"/><path class="cls-1" d="M73.23,147.65a73.58,73.58,0,1,1,73.58-73.57A73.65,73.65,0,0,1,73.23,147.65Zm0-139.15a65.58,65.58,0,1,0,65.58,65.58A65.65,65.65,0,0,0,73.23,8.5Z"/><path class="cls-1" d="M111.54,117.26l-10.06,4.42L95,107,84.08,117.43V68.31l36.19,33.27-15.17,1Zm-4.13-1.61c-2.33-5.33-4.63-10.57-7-15.93l12.31-.81L87.23,75.46v34.62l8.86-8.46,7,15.93Z"/><path class="cls-1" d="M100.43,99.72l12.31-.81L87.23,75.46v34.62l8.86-8.46,7,15.93,4.32-1.9c-2.33-5.33-4.63-10.57-7-15.93"/></g></svg>