<svg xmlns="http://www.w3.org/2000/svg" viewBox="0 0 212.7 209.32"><defs><style>.cls-1{fill:#fff;}.cls-2{fill:#f0f0f0;}.cls-3{fill:#cacaca;}</style></defs><title>iconos</title><g id="Capa_1" data-name="Capa 1"><path class="cls-1" d="M47.19,104.88a54.27,54.27,0,0,1,4.3-21.65C54,76.94,48.41,68.87,41.64,69c-7.11.15-12-3.61-12.74-9.76s2.72-11.42,8.62-12.82c6.37-1.51,11.65,1.71,14,8.54s11.84,9.59,17.58,5.16a68.38,68.38,0,0,1,8.31-5.46c5.66-3.18,7.94-7.84,6.77-14.4a29.5,29.5,0,0,1-.67-3.67c-.18-3.23-1.69-5-4.76-6.36a15.35,15.35,0,0,1-8.79-16C71.07,6.94,77,1.31,84.88.16a17.6,17.6,0,0,1,17.66,9.21,14.89,14.89,0,0,1-3.17,17.91c-4.51,4-1.53,8.15-.39,11.75,1.63,5.16,4.71,9.24,11.5,9.09,7.13-.16,13.84,2.42,20.22,5.6,5,2.48,10.13,1.83,14-2.35,3.56-3.84,7.59-7.15,8.28-13.26.64-5.59,6.46-8.82,12.19-8.23a11.55,11.55,0,0,1,10.12,10,11.24,11.24,0,0,1-8.13,12.43c-9,2.32-12.66,9.3-15.58,17.08-.55,1.45.34,2.36,1,3.37,2.25,3.34,4.7,6.74,5.59,10.61,1.67,7.19,7.25,8.18,12.91,8.66,4.31.36,8-.44,10.83-5.23,5-8.51,16.18-10,23.9-4.06,8.17,6.27,9.22,19.11,2.2,27.06a16.61,16.61,0,0,1-25.52-.06c-3.1-3.64-7-4.58-11.74-2.85-5.19,1.89-9.42,4.47-9.58,10.93,0,2.14-1,4.29-1.68,6.39a10.73,10.73,0,0,0,11.24,13.83,11.88,11.88,0,0,1,12.67,9.11,11.64,11.64,0,0,1-7.87,13.41,11.35,11.35,0,0,1-14.09-6.4c-2.13-5.16-6.2-7.35-11.41-8.1a7.12,7.12,0,0,0-6.38,2.15,46.14,46.14,0,0,1-10.41,7.51,7.3,7.3,0,0,0-4,5.81c-1.07,6.1.24,11.79,1.8,17.57.51,1.85,1.77,2.25,3.07,2.95,6.26,3.36,9.25,9.94,7.49,16.39a14.56,14.56,0,0,1-14.47,10.86c-6.87-.3-12.34-5.28-13.68-12.33-.55-2.86-.4-5.88,1.25-8,4.64-5.93,1.22-11.34-.72-16.67-2.41-6.59-7.1-10.41-14.64-9.4a7.16,7.16,0,0,1-1.66-.1c-8.25-.82-12.93,1.77-16.74,9.3-1.12,2.22-2.1,4.52-3.27,6.72a11.4,11.4,0,0,0-1.4,8.2c1.22,6-2.63,11.4-8.44,12.92A11.63,11.63,0,0,1,54.3,193a11.15,11.15,0,0,1,5.46-14.43c2.4-1.15,3.48-2.86,4.54-5,2.78-5.58,5.45-11.11,5.81-17.56.14-2.62-.26-4.57-2.23-6.25a60.31,60.31,0,0,1-12.24-14c-.84-1.35-2-2.59-3.54-2.63-4-.1-8-.68-12,.43-4.43,1.24-7.83,2.69-9.77,7.89C27.3,149.71,17,152.68,9,148.73a16.06,16.06,0,0,1-7.48-21.19c3.74-8.21,13.51-12.45,21.14-7.82,6,3.62,10.53,1,15.43-.89,2.63-1,4.82-3.21,7.17-4.91C48.67,111.42,46.65,107.76,47.19,104.88Z"/><path class="cls-1" d="M32.76,27.48A12,12,0,0,1,20.7,15.42a12.11,12.11,0,1,1,24.22.11A12,12,0,0,1,32.76,27.48Z"/><path class="cls-1" d="M177.4,201.15a11.76,11.76,0,1,1,11.9-11.8A11.9,11.9,0,0,1,177.4,201.15Z"/><path class="cls-1" d="M37.44,176a8,8,0,1,1-7.83-8A8,8,0,0,1,37.44,176Z"/><path class="cls-2" d="M109.68,63.11c15.34.48,30.95,13.48,36.08,29.69,8.4,26.56-11.2,52.78-36.08,55.07-16.3-2.2-26.74-12-32.52-26.63C68,98,79.75,72.8,103.18,64A14.86,14.86,0,0,1,109.68,63.11Z"/><path class="cls-3" d="M109.68,63.11C100.61,65.64,92.56,69.76,86.19,77A41.06,41.06,0,0,0,75.53,101c-1.36,14.62,3.56,26.63,14.21,36.53,5.71,5.31,12.76,7.91,19.94,10.31-9.32,2.13-17.87-.63-25.74-5.05A42.56,42.56,0,0,1,69.72,80.94c9-12.82,21.93-18.9,37.71-18.63A2.67,2.67,0,0,1,109.68,63.11Z"/><path class="cls-1" d="M91.64,104.68a11.21,11.21,0,0,1-11-11.13c0-5.71,5.46-11.19,11.21-11.17S103.11,88,103,93.65,97.37,104.75,91.64,104.68Z"/><path class="cls-1" d="M105.26,135.43a6.31,6.31,0,1,1,6.25-6.27A6.47,6.47,0,0,1,105.26,135.43Z"/><path class="cls-1" d="M125.15,115.13c-3.12,0-5.17-1.94-5.22-4.9a5.26,5.26,0,1,1,10.52-.19C130.52,113.28,128.57,115.15,125.15,115.13Z"/></g></svg>