<svg xmlns="http://www.w3.org/2000/svg" viewBox="0 0 131.29 131.29"><defs><style>.cls-1{fill:#fff;}</style></defs><title>intagram</title><g id="Capa_1" data-name="Capa 1"><path class="cls-1" d="M65.65,131.29a65.65,65.65,0,1,1,65.64-65.64A65.72,65.72,0,0,1,65.65,131.29Zm0-124.15a58.51,58.51,0,1,0,58.5,58.51A58.57,58.57,0,0,0,65.65,7.14Z"/><path class="cls-1" d="M65.74,29.88H82.92c10.7,0,18.47,7.79,18.49,18.51q0,17.24,0,34.49c0,10.73-7.78,18.51-18.48,18.52q-17.24,0-34.49,0c-10.79,0-18.55-7.78-18.56-18.58q0-17.17,0-34.35c0-10.82,7.75-18.58,18.54-18.6Zm0,5.94H48.46c-7.54,0-12.61,5.09-12.63,12.63q0,17.17,0,34.34c0,7.62,5.09,12.66,12.72,12.67q17.12,0,34.21,0c7.63,0,12.69-5.06,12.7-12.69q0-17.1,0-34.21c0-7.7-5.06-12.72-12.79-12.74Z"/><path class="cls-1" d="M47.77,65.57a17.88,17.88,0,1,1,17.77,18A17.9,17.9,0,0,1,47.77,65.57ZM65.61,53.71a11.93,11.93,0,1,0,12,11.87A12,12,0,0,0,65.61,53.71Z"/><path class="cls-1" d="M89.45,46.32A4.44,4.44,0,0,1,85,50.74a4.52,4.52,0,0,1-4.45-4.45,4.44,4.44,0,0,1,4.55-4.45A4.38,4.38,0,0,1,89.45,46.32Z"/></g></svg>