<svg id="Capa_1" data-name="Capa 1" xmlns="http://www.w3.org/2000/svg" viewBox="0 0 113.31 101.88"><defs><style>.cls-1{fill:#29a9e0;}</style></defs><title>icono_sensor</title><path class="cls-1" d="M81.77,20.74a5,5,0,0,1-3-1,39.41,39.41,0,0,0-6.93-4,5,5,0,0,1-3-4.09,4.94,4.94,0,0,1,2-4.56L80,.42A5,5,0,0,1,88,5L86.76,16.26a5,5,0,0,1-5,4.48M80.71,15.6Zm-4.77-4.67a45.54,45.54,0,0,1,5,2.9l.77-7.09Z"/><path class="cls-1" d="M83,101.88a5.07,5.07,0,0,1-3-1l-8.4-6.15a5,5,0,0,1-2-4.52,5,5,0,0,1,2.88-4.09,40,40,0,0,0,6.38-3.81,5.08,5.08,0,0,1,5-.56,5,5,0,0,1,3,4L88,96.31a5,5,0,0,1-5,5.57m-6.38-11,5.08,3.71L81,88.26a44.21,44.21,0,0,1-4.39,2.62"/><path class="cls-1" d="M44.81,100a4.12,4.12,0,0,1-4.52-4.11c0-3.24,0-6.47,0-10.56-2.52,2.46-4.57,4.39-6.54,6.4-1.7,1.75-3.61,2.82-5.57.74-1.81-1.92-.78-3.78.92-5.33.16-.15.3-.31.45-.47,3.55-3.63,8.8-6.71,10.21-11,1.78-5.47.43-12,.43-18.57-5.46,3.16-10.66,6.12-15.8,9.2-.52.31-.75,1.25-.95,1.94-1.28,4.57-2.56,9.13-3.77,13.72-.61,2.32-1.84,3.9-4.35,3.06-2.15-.73-2.65-2.47-1.9-4.75.9-2.74,1.47-5.58,2.35-9-3.36,1.91-6.22,3.5-9,5.15-2.09,1.23-4.18,1.79-5.57-.74s.37-3.76,2.3-4.87c2.86-1.64,5.69-3.34,9.07-5.33L3.2,62.9C1.07,62.33-.48,61.14.15,58.76S2.69,56,4.82,56.57C9.2,57.72,13.53,59.1,18,60.05a7.61,7.61,0,0,0,4.82-.59C27.44,57,31.91,54.27,37,51.34c-5.5-3.19-10.47-6.17-15.55-8.91-.88-.48-2.33-.17-3.44.11C13.71,43.63,9.45,44.85,5.19,46,3,46.61.87,46.49.16,44s1-3.68,3.28-4.25c2.79-.71,5.57-1.5,9-2.44-3.34-2-6.16-3.65-9-5.3C1.55,30.83-.06,29.45,1.36,27s3.31-1.94,5.33-.75c2.83,1.67,5.7,3.28,9.11,5.23-.93-3.55-1.61-6.47-2.47-9.33-.67-2.25-.17-4,2.1-4.64s3.57.68,4.16,2.92q1.83,7.05,3.87,14A4.21,4.21,0,0,0,25,36.77c4.88,2.94,9.84,5.75,15.32,8.92,0-6.4,0-12.28-.07-18.16,0-.8-.86-1.69-1.51-2.35q-4.76-4.89-9.62-9.66c-1.64-1.6-2.7-3.42-.88-5.33,2-2.07,3.92-1,5.56.77l5.61,6.17.92-.5c0-3.29,0-6.58,0-9.87a4.14,4.14,0,0,1,4.26-4.07"/><path class="cls-1" d="M98.15,60A5,5,0,0,1,95.23,59a5,5,0,0,1-2.08-4.59c.11-1.18.16-2.38.16-3.56a41.72,41.72,0,0,0-.23-4.33,5.08,5.08,0,0,1,2-4.64,5,5,0,0,1,5-.54l10.21,4.5a5,5,0,0,1,0,9.21l-10.12,4.46a5.1,5.1,0,0,1-2,.44m1.13-12.32c.08,1.08.12,2.15.12,3.22,0,.79,0,1.59-.06,2.39l6.33-2.79Z"/><path class="cls-1" d="M54,14h0v6.08a30.8,30.8,0,0,1,0,61.59v6.08A36.88,36.88,0,1,0,54,14"/></svg>