<svg xmlns="http://www.w3.org/2000/svg" viewBox="0 0 144.8 161.78"><defs><style>.cls-1{fill:#fff;}</style></defs><title>icono_confort</title><g id="Capa_1" data-name="Capa 1"><path class="cls-1" d="M18.11,60.94a5.77,5.77,0,0,0,2.41-.72A5.86,5.86,0,0,0,23,57.64a54.69,54.69,0,0,1,5.63-9.1,6,6,0,0,0,.77-5.89,5.81,5.81,0,0,0-4.67-3.55L9.93,37.24a6.13,6.13,0,0,0-.74-.05,5.89,5.89,0,0,0-4.81,9.28l8.48,12A5.8,5.8,0,0,0,18.11,60.94Zm-8-17.3,13,1.64-1,1.35a64.13,64.13,0,0,0-3.8,6.16l-.77,1.42Z"/><path class="cls-1" d="M132.42,60.87l9.14-12a5.88,5.88,0,0,0-4.69-9.44l-.53,0L121.15,40.8a5.78,5.78,0,0,0-4.8,3.38,5.93,5.93,0,0,0,.56,5.9,55.07,55.07,0,0,1,3.22,5.12c.79,1.43,1.53,2.92,2.2,4.44a5.87,5.87,0,0,0,4.74,3.51,5.75,5.75,0,0,0,3.51-.67h0A6,6,0,0,0,132.42,60.87Zm-4.57-4.43L127.14,55c-.46-.95-1-1.91-1.48-2.85-.7-1.25-1.45-2.5-2.24-3.72L122.51,47l13.42-1.23Z"/><path class="cls-1" d="M85.08,19.28,79.09,5a5.89,5.89,0,0,0-10.77-.18l-6.45,14a5.88,5.88,0,0,0,5.85,8.32C69.18,27,70.64,27,72.11,27a55,55,0,0,1,6.78.42,5.89,5.89,0,0,0,3.63-.71h0a5.84,5.84,0,0,0,2.56-7.4ZM69.58,20.7l-1.64.07L73.65,8.4,79,21l-1.65-.14A60.23,60.23,0,0,0,69.58,20.7Zm7.88,1.9,1.75-1h0Z"/><path class="cls-1" d="M11.69,102.11,3.24,113.24a5.89,5.89,0,0,0,5.23,9.42l13.82-1.27a5.66,5.66,0,0,0,2.32-.71A5.78,5.78,0,0,0,27,118.09a5.87,5.87,0,0,0-.43-5.85c-.84-1.24-1.63-2.54-2.36-3.86a53.58,53.58,0,0,1-2.44-5,6,6,0,0,0-4.72-3.57,6.12,6.12,0,0,0-.74,0A5.8,5.8,0,0,0,11.69,102.11ZM17,108c.55,1.18,1.14,2.33,1.75,3.42.44.79.9,1.58,1.37,2.35l.84,1.37-12,1.1,7.37-9.72Z"/><path class="cls-1" d="M140.66,122a5.91,5.91,0,0,0-.24-6.42l-8.32-11.77a5.79,5.79,0,0,0-4.76-2.49,5.25,5.25,0,0,0-.56,0,5.93,5.93,0,0,0-4.84,3.44,55.49,55.49,0,0,1-5.2,9,5.87,5.87,0,0,0-.63,5.83,5.8,5.8,0,0,0,4.64,3.46l14.12,1.78a5.87,5.87,0,0,0,3.6-.69h0A5.86,5.86,0,0,0,140.66,122Zm-18.36-5.14.88-1.34a59.51,59.51,0,0,0,3.46-6l.75-1.47,7.29,10.32Z"/><path class="cls-1" d="M61.11,138.66a5.83,5.83,0,0,0-.7,5.78L65.71,157a5.88,5.88,0,0,0,5.32,3.6,5.9,5.9,0,0,0,5.45-3.42l5.74-12.43a5.88,5.88,0,0,0-5.81-8.32,54.92,54.92,0,0,1-9.93-.14c-.22,0-.43,0-.65,0A5.86,5.86,0,0,0,61.11,138.66Zm13.41,4.24,1.63-.06-5,10.83-4.61-11,1.62.11A61.35,61.35,0,0,0,74.52,142.9ZM68,141.12h0l-1.75,1Z"/><path class="cls-1" d="M85.79,34.29a49.69,49.69,0,0,0-13.72-1.94,49.68,49.68,0,1,0,13.72,1.94Zm27.83,59.37a43.11,43.11,0,0,1-41.34,31.25,43.46,43.46,0,0,1-12-1.69,43.11,43.11,0,1,1,53.3-29.56Z"/></g></svg>