<svg xmlns="http://www.w3.org/2000/svg" viewBox="0 0 462.31 123.21"><defs><style>.cls-1{font-size:82.05px;}.cls-1,.cls-2,.cls-3{fill:#fff;}.cls-1,.cls-3{font-family:Ailerons-Regular, Ailerons;}.cls-3{font-size:32.82px;}</style></defs><title>minding_blanco</title><g id="Capa_1" data-name="Capa 1"><text class="cls-1" transform="translate(121.16 102.06)">Comfort</text><path class="cls-2" d="M101.05,31.83,55.65,5.62a6.83,6.83,0,0,0-6.83,0L3.42,31.83A6.83,6.83,0,0,0,0,37.75V90.17a6.83,6.83,0,0,0,3.42,5.92l45.4,26.21a6.83,6.83,0,0,0,6.83,0l45.4-26.21a6.85,6.85,0,0,0,3.42-5.92V37.75A6.85,6.85,0,0,0,101.05,31.83ZM80.15,75.42a3.41,3.41,0,0,1-1.71,3L53.94,92.53a3.42,3.42,0,0,1-3.42,0L26,78.39a3.41,3.41,0,0,1-1.71-3V50A3.43,3.43,0,0,1,26,47l5.83-3.36a3.42,3.42,0,0,1,3.42,0l15.25,8.81a3.42,3.42,0,0,0,3.42,0l15.28-8.82a3.4,3.4,0,0,1,3.38,0l5.81,3.26a3.42,3.42,0,0,1,1.74,3Z"/><text class="cls-3" transform="translate(116.38 26.25)">minding</text></g></svg>