<svg id="Capa_1" data-name="Capa 1" xmlns="http://www.w3.org/2000/svg" viewBox="0 0 113.31 101.88"><defs><style>.cls-1{fill:#29a9e0;}</style></defs><title>icono_sensor</title><path class="cls-1" d="M52.94,102.25a41,41,0,0,1-41-41C12,43.24,36.6,14.09,47.2,2.4A7.27,7.27,0,0,1,52.56,0h0A7.3,7.3,0,0,1,58,2.34c10.82,11.7,36,40.87,36,58.94a41,41,0,0,1-41,41M52.6,6.65h0a.62.62,0,0,0-.48.21C35.92,24.74,18.61,48.43,18.61,61.28a34.33,34.33,0,0,0,68.66,0c0-12.84-17.67-36.54-34.2-54.43a.62.62,0,0,0-.47-.2"/><path class="cls-1" d="M31.09,45.87A10.93,10.93,0,0,1,41.7,35.78a12.58,12.58,0,0,1,4.51.8A27.63,27.63,0,0,0,55.6,38a43.43,43.43,0,0,0,12-1.7l-.54,4L46.48,77.86H39.15L57.57,44.27a15.11,15.11,0,0,1-3.82.43,16.08,16.08,0,0,1-2.55-.16c0,.37-.05.8-.05,1.22l-.06.58A10.93,10.93,0,0,1,40.48,56.43c-6.63,0-10-4.09-9.44-10Zm6.1.53a3.33,3.33,0,0,0,3.34,3.82h.53a3.91,3.91,0,0,0,3.88-3.82l.05-.59A3.32,3.32,0,0,0,41.65,42h-.53a3.92,3.92,0,0,0-3.88,3.82Zm40,22.07A10.92,10.92,0,0,1,66.59,78.55c-6.64,0-10-4.08-9.45-10l0-.59A10.93,10.93,0,0,1,67.81,57.91c6.63,0,10,4.09,9.44,10Zm-6.1-.53a3.32,3.32,0,0,0-3.35-3.82h-.53a3.9,3.9,0,0,0-3.87,3.82l-.05.58a3.31,3.31,0,0,0,3.34,3.82h.53A3.9,3.9,0,0,0,71,68.52Z"/></svg>