<svg xmlns="http://www.w3.org/2000/svg" viewBox="0 0 144.8 161.78"><defs><style>.cls-1{fill:#fff;}</style></defs><title>icono_confort</title><g id="Capa_1" data-name="Capa 1"><path class="cls-1" d="M9.65,96.83a62.75,62.75,0,1,0,125.5,0c0-27.85-39.37-73.45-56.3-91.77a9.51,9.51,0,0,0-14,.07C48.23,23.44,9.65,69,9.65,96.83ZM71.85,8.5h0a3,3,0,0,1,2.22,1C100.46,38,128.65,76,128.65,96.83a56.25,56.25,0,1,1-112.5,0C16.15,76,43.78,38,69.63,9.49A3,3,0,0,1,71.85,8.5Z"/><path class="cls-1" d="M93.18,60.1a74.11,74.11,0,0,1-16.57,2,46,46,0,0,1-15.52-2.39,17.85,17.85,0,0,0-6.45-1.14A15.28,15.28,0,0,0,39.86,72.66h0l-.08.92c-.37,4.1.57,7.51,2.72,9.86s5.76,3.72,10.21,3.72A15.26,15.26,0,0,0,67.49,73.05l.08-.84c0-.36,0-.71,0-1.06s0-.53,0-.77V68.09l2.27.31a23.88,23.88,0,0,0,3.75.23A22.29,22.29,0,0,0,79.2,68l4.51-1.21L54,121h7L92.79,63ZM61.83,72.58l-.08.91c-.4,4.63-3.74,7.86-8.11,7.86H52.8A7.22,7.22,0,0,1,47.37,79a7.53,7.53,0,0,1-1.85-5.88l.09-.92c.4-4.62,3.73-7.86,8.11-7.86h.84A7.22,7.22,0,0,1,60,66.69,7.56,7.56,0,0,1,61.83,72.58Z"/><path class="cls-1" d="M94,122.13A15.26,15.26,0,0,0,108.74,108h0l.09-.92c.37-4.1-.57-7.51-2.72-9.86s-5.76-3.72-10.22-3.72a15.26,15.26,0,0,0-14.77,14.11l-.09.92c-.37,4.1.57,7.51,2.72,9.87S89.51,122.13,94,122.13Zm-7.19-14,.08-.92c.4-4.62,3.74-7.85,8.11-7.85h.84a7.22,7.22,0,0,1,5.43,2.34,7.52,7.52,0,0,1,1.84,5.88l-.08.92c-.4,4.62-3.74,7.85-8.11,7.85h-.84A7.25,7.25,0,0,1,88.62,114,7.56,7.56,0,0,1,86.78,108.09Z"/></g></svg>