<svg xmlns="http://www.w3.org/2000/svg" viewBox="0 0 212.7 209.32"><defs><style>.cls-1,.cls-2,.cls-3,.cls-4{fill:#fff;}.cls-2{opacity:0.6;}.cls-3{opacity:0.8;}.cls-4{opacity:0.4;}</style></defs><title>iconos</title><g id="Capa_2" data-name="Capa 2"><path class="cls-1" d="M189.57,116.17c5.5,1.42,7.34,3.58,7.34,8.86q0,38.4,0,76.78c-1.29,1.21-3,1.3-4.72,1.31q-17.82.13-35.65,0a7.77,7.77,0,0,1-4.39-1.06c-1.58-1.74-1.37-3.82-1.38-5.83-.18-24.76.2-49.52.28-74.27,1.25-4.58,3.07-6.06,8.41-6.83C169.45,116.38,179.55,115.5,189.57,116.17Z"/><path class="cls-2" d="M61.12,187.8c0-4.46,0-8.93,0-13.4,0-6.16,3-8.84,10.09-9.09,4-.15,8-.13,12-.19,2.73-1.77,5.9-1.16,8.94-1.25,4,.08,7.94.4,11.85,2.42.89-3.83.13-7.41.51-10.92.3-2.7.49-2.84,3-2.64,1.63,5.36,1.16,10.85.62,16.18-.9,9.09-.54,18.17-.75,27.24,0,2,.22,4.11-1.33,5.87-1.72,1.15-3.77,1.12-5.77,1.13q-16.68.07-33.37,0c-2,0-4.05,0-5.8-1.07C59,197.32,58.74,192.56,61.12,187.8Z"/><path class="cls-1" d="M61.21,201.79l44.66.06c1.59-1.35,3.62-1.4,5.63-1.41q17.58-.08,35.17,0c2,0,4,.05,5.65,1.35l44.59,0c3.09.07,6.18.11,9.26.22,2.84.1,6.63-.59,6.53,3.29-.09,3.57-3.65,3-6.36,3H6.25c-2.69,0-5.77.17-5.69-3.17s3.18-3.08,5.85-3.12l9.26-.21c1.61-1.32,3.63-1.36,5.64-1.37q17.13-.08,34.24,0C57.56,200.45,59.59,200.48,61.21,201.79Z"/><path class="cls-3" d="M92.6,165.15l-9.35,0c4.44-8.33,8.7-16.75,13.42-25a26.88,26.88,0,0,0,3.45-12.46c.34-6.49.85-13,1.28-19.46,7.5-4,15.2-7.49,24.08-8.41a2.33,2.33,0,0,1,.57,1.18c-.49,6.41-3.12,12.57-3,19.06a16.86,16.86,0,0,0-.76,1.91c-1.25,9.55-5.61,17.9-12.54,25.28a9.51,9.51,0,0,1-2.48,2.86c-4,3.21-6.7,7.42-10.11,11.09C95.81,162.68,94.7,164.35,92.6,165.15Z"/><path class="cls-1" d="M167.84,7.46c12.68.09,25.36.16,38,.31,1.58,0,3.88-.82,4.57.88S208.79,11,207.63,12c-2.45,2.06-5,4-7.65,5.91-2.37,1.67-2,2.93.2,4.46A88,88,0,0,1,207.47,28c1.21,1.05,4,1.61,3,3.56-.88,1.69-3.35.82-5.09.83-11,.07-22,0-33,0-1.69,0-3.39.11-5.09.16-3.18,1.23-4.94-.06-5.07-2.72a194.72,194.72,0,0,1,0-19.48C162.39,7.35,164.74,6.65,167.84,7.46Z"/><path class="cls-4" d="M61.21,201.79l-45.54,0c0-3.51-.12-7,0-10.53.17-4.38,3.5-7.33,8.53-7.39,9.39-.1,18.8.1,28.19-.09,4-.08,5.92,2.51,8.71,4Z"/><path class="cls-1" d="M125.31,100l-23.91,8.27c.72-2.52,1.18-5.1,2.57-7.44a7.34,7.34,0,0,1,3-2.47c8.62-4.06,14.27-10.4,16.8-18.52,2.13-6.84,6-11.88,13.46-15C140.78,63.3,144,61,147.52,59.4c6.3-2.81,10.95-6.91,13.87-12.53,1.52-1.65,3-3.3,5.89-2.36,1.87,3.31.45,6.58-.13,9.86-.75,3.49-3.31,5.89-6.23,8.09-6.57,3.82-13.46,7.17-20.19,10.76-3.66,2-6,4.36-7.17,8C132,86.17,130,91,128,95.87,127.43,97.38,127.15,99.08,125.31,100Z"/><path class="cls-3" d="M161.62,47.08c-1.26,5.06-4.71,8.59-9.73,11.19-6.61,3.43-13.07,7.09-19.65,10.55a10.39,10.39,0,0,0-5.19,5.92c-2.33,6.26-4.61,12.48-9.76,17.68-3.77,3.81-8.34,6.25-13.32,8.38,2.87-9,5.64-18.09,8.65-27.08,1.08-3.22,3.77-5.44,7.13-7,2-1.89,4.1-3.56,7.3-3.49,11.35-5.15,22.74-10.22,33.6-16.13A.61.61,0,0,1,161.62,47.08Z"/><path class="cls-1" d="M160.63,61.84l6.52-7.47c0,18.84.18,37.68,0,56.51,0,3.77,1.19,4.82,5.44,4.76,5.65-.07,11.39-.91,17,.53h-30.8c.79-15.9.2-31.8.38-47.7C159.18,66.17,159,63.85,160.63,61.84Z"/><path class="cls-2" d="M127.05,63.21c-2.33,1.32-4.57,2.81-7.3,3.49-5.12.58-8.28-1.69-10-5.6-1.5-3.34-5.47-6.19-2.75-10.49,2.1-3.33,5.64-4.67,9.47-5.07,3.55-.37,6.1,1.69,7.69,4.39C126.56,54.09,130.06,58.11,127.05,63.21Z"/><path class="cls-1" d="M161.62,47.08h-1q0-21.1-.06-42.21c0-2.18-.35-4.82,3.16-4.87,3.33,0,3.52,2.41,3.53,4.71a13.3,13.3,0,0,0,.56,2.75c-3,.13-4.48,1.12-4.3,4.18.35,5.75.22,11.52.05,17.28-.07,2.46.63,3.87,3.71,3.69,0,4,0,7.93,0,11.9Z"/><path class="cls-3" d="M106.79,149.53c.64-.82,1.29-1.63,1.93-2.44,2.84-2.62,6.56-2.58,10.27-2.72,3.94-.13,8,.73,11.68-1.35a26.53,26.53,0,0,0,10,1.42c3.52-.06,6.75.58,9.38,3.12-.13-7.33-.14-14.54,0-21.75,0-1.72-.66-4,2.23-4.75q0,40.37,0,80.73l-46.45.06c0-8.8-.61-17.65.17-26.4a211.71,211.71,0,0,0,.58-23.48A1.62,1.62,0,0,1,106.79,149.53Z"/><path class="cls-1" d="M125.46,100.54q7.81,8,15.63,16a7.65,7.65,0,0,1,2.12,6.83c-1.06,7.38-2,14.78-3,22.18-3.11-.6-7.3,1.82-9.08-2.5-2-1.48-1.7-3.69-1.93-5.58-.75-6.2-.52-12.62-6.61-17.23-2.52-4.85,1.21-9.29,1.24-14C123.84,104.37,124.88,102.46,125.46,100.54Z"/></g></svg>