<svg id="Capa_1" data-name="Capa 1" xmlns="http://www.w3.org/2000/svg" viewBox="0 0 135.31 101.88"><defs><style>.cls-1{fill:#29a9e0;}</style></defs><title>icono_sensor</title><path class="cls-1" d="M17.91,51.79c-1.56,12.89.08,20.27,7.47,20.27h.82c8.13,0,9.69-4.18,10.67-11.41H50.25l-.16,1.24C48,77.56,39.5,83.55,25.46,83.55c-15.84,0-23.88-9.44-21.09-31.76l.33-2.63C7.49,26.92,15.86,17.4,31.7,17.4,48.36,17.4,54.85,25,53,40.14l-.33,2.62H39.25c1.15-9.19-.41-13.87-7.47-13.87H31c-7.3,0-11.16,7.39-12.72,20.19Z"/><path class="cls-1" d="M107,49.16l-.33,2.63C103.85,74,95.89,83.55,79.23,83.55s-24.3-9.44-21.51-31.76l.33-2.63C60.84,26.92,68.8,17.4,85.46,17.4s24.3,9.44,21.51,31.76M80,72.06c8.13,0,11.5-7.38,13.14-20.27l.33-2.63c1.64-12.88.32-20.27-7.88-20.27h-.83c-8.12,0-11.49,7.39-13.13,20.27l-.33,2.63c-1.64,12.89-.32,20.27,7.88,20.27Z"/><path class="cls-1" d="M129.62,82.49H107.3l.82-6.41,13-12.39a4.56,4.56,0,0,0,1.56-2.54l.16-1.23c.16-1.32-.25-2-1.07-2h-.16c-1,0-1.48.82-1.72,3.2H110l.08-.74c.66-5.83,3.45-11,12.06-11,8.95,0,11.17,6.15,10.67,9.6l-.16,1.23c-.49,3.53-2.13,5.5-4.84,8.13l-6,5.66h8.86Z"/></svg>