<svg xmlns="http://www.w3.org/2000/svg" viewBox="0 0 55.31 63.1"><defs><style>.cls-1{fill:#29a9e0;}.cls-2{fill:#fff;}</style></defs><title>logo</title><g id="Capa_1" data-name="Capa 1"><path d="M25.84.66l-24,13.88A3.61,3.61,0,0,0,0,17.67V45.43a3.62,3.62,0,0,0,1.81,3.13l24,13.88a3.65,3.65,0,0,0,3.62,0l24-13.88a3.62,3.62,0,0,0,1.81-3.13V17.67a3.61,3.61,0,0,0-1.81-3.13L29.46.66A3.6,3.6,0,0,0,25.84.66Z"/><path class="cls-1" d="M27.65,31.58V62.92a3.63,3.63,0,0,0,1.81-.48l12-6.94,12-6.94a3.62,3.62,0,0,0,1.81-3.13V17.67a3.68,3.68,0,0,0-.47-1.79Z"/><path class="cls-2" d="M36.65,20.77l-8.09,4.67a1.78,1.78,0,0,1-1.81,0l-8.08-4.66a1.83,1.83,0,0,0-1.81,0l-3.08,1.78a1.82,1.82,0,0,0-.91,1.57V37.62a1.81,1.81,0,0,0,.91,1.57l13,7.49a1.83,1.83,0,0,0,1.81,0l13-7.49a1.82,1.82,0,0,0,.91-1.57V24.07a1.82,1.82,0,0,0-.93-1.58l-3.07-1.73A1.81,1.81,0,0,0,36.65,20.77Zm-9,10.85Z"/></g></svg>